<svg width="255" height="151" viewBox="0 0 255 151" fill="none" xmlns="http://www.w3.org/2000/svg">
<g clip-path="url(#clip0_18_188)">
<path d="M184.948 72.594C185.317 72.3439 185.737 72.1776 186.177 72.107C186.618 72.0363 187.069 72.0629 187.498 72.1849C187.927 72.3069 188.324 72.5214 188.661 72.8132C188.998 73.105 189.267 73.467 189.448 73.8738L196.419 73.69L197.564 77.8923L187.717 78.0138C187.012 78.2734 186.236 78.2659 185.537 77.9927C184.837 77.7195 184.263 77.1996 183.921 76.5316C183.58 75.8635 183.496 75.0937 183.685 74.368C183.875 73.6422 184.324 73.011 184.948 72.594Z" fill="#FFB8B8"/>
<path d="M192.767 79.3113C192.332 78.9071 192.068 78.3528 192.028 77.7611L191.75 73.5837C191.724 73.2014 191.793 72.8186 191.951 72.4694C192.109 72.1202 192.351 71.8155 192.656 71.5823L203.894 62.9612L210.427 55.0435C211.09 54.2434 212.032 53.7249 213.063 53.5936C214.094 53.4623 215.137 53.728 215.979 54.3366C216.417 54.6543 216.788 55.0557 217.069 55.5176C217.35 55.9795 217.537 56.4927 217.618 57.0272C217.699 57.5617 217.672 58.107 217.54 58.6312C217.408 59.1555 217.173 59.6483 216.848 60.081L209.239 70.2241L203.821 75.9524C202.099 77.7648 199.844 78.9827 197.382 79.4297L194.768 79.8984C194.445 79.9562 194.113 79.9454 193.795 79.8666C193.476 79.7878 193.178 79.6429 192.92 79.4413C192.867 79.4 192.816 79.3567 192.767 79.3113Z" fill="#1A237E"/>
<path d="M244.264 144.708L240.655 145.608L235.46 132.136L240.787 130.808L244.264 144.708Z" fill="#FFB8B8"/>
<path d="M237.819 145.222L244.78 143.486L245.875 147.862L234.53 150.691C234.386 150.116 234.358 149.519 234.445 148.933C234.532 148.347 234.735 147.784 235.04 147.276C235.345 146.768 235.748 146.325 236.225 145.973C236.701 145.62 237.243 145.365 237.819 145.222Z" fill="#2F2E41"/>
<path d="M211.687 147.241L207.966 147.241L206.197 132.913L211.688 132.914L211.687 147.241Z" fill="#FFB8B8"/>
<path d="M205.309 146.179H212.484V150.69H200.791C200.791 150.098 200.908 149.511 201.135 148.964C201.362 148.417 201.695 147.919 202.114 147.501C202.534 147.082 203.032 146.749 203.58 146.523C204.128 146.296 204.716 146.179 205.309 146.179Z" fill="#2F2E41"/>
<path d="M210.074 43.8251C214.488 43.8251 218.067 40.2522 218.067 35.8447C218.067 31.4372 214.488 27.8643 210.074 27.8643C205.659 27.8643 202.081 31.4372 202.081 35.8447C202.081 40.2522 205.659 43.8251 210.074 43.8251Z" fill="#FFB8B8"/>
<path d="M210.058 36.1277C210.073 35.0603 211.913 34.9265 212.486 35.8363C213.059 36.746 212.692 37.933 212.187 38.8803C211.661 39.8665 210.979 40.8624 211.084 41.9825C211.12 42.2652 211.228 42.5342 211.396 42.7645C211.564 42.9947 211.788 43.1787 212.047 43.2993C212.305 43.4199 212.59 43.4732 212.875 43.4542C213.16 43.4352 213.435 43.3445 213.676 43.1907C216.287 41.5857 218.491 39.2494 219.466 36.4021C220.491 33.4074 219.979 29.8376 217.761 27.5368C215.542 25.236 211.566 24.5852 208.933 26.4245L204.439 23.3684C204.333 23.294 204.207 23.2542 204.077 23.2543C203.948 23.2544 203.822 23.2945 203.716 23.369C203.61 23.4436 203.53 23.549 203.487 23.6708C203.444 23.7926 203.439 23.9247 203.474 24.0492L204.131 26.1815L201.861 25.6114C201.765 25.5846 201.662 25.5876 201.567 25.6199C201.472 25.6523 201.389 25.7126 201.329 25.7929C201.268 25.8731 201.234 25.9697 201.23 26.0699C201.225 26.1701 201.251 26.2692 201.304 26.3544L202.084 27.5632C201.044 26.7095 199.249 27.6824 199.1 28.999C198.951 30.3155 200.023 31.5292 201.283 32.0252C202.543 32.5211 203.951 32.4647 205.308 32.4005C205.162 33.0562 205.227 33.7413 205.493 34.3583C205.759 34.9752 206.214 35.4926 206.792 35.8366C207.966 36.5159 209.587 36.3558 210.058 36.1277Z" fill="#2F2E41"/>
<path d="M211.79 141.191C211.775 141.191 211.759 141.191 211.744 141.19L205.997 141.011C205.802 141.005 205.61 140.96 205.433 140.879C205.255 140.798 205.096 140.682 204.964 140.538C204.832 140.395 204.73 140.226 204.664 140.043C204.598 139.859 204.57 139.665 204.581 139.47L207.455 86.7784L229.538 93.0313L244.02 138.125C244.089 138.341 244.107 138.57 244.073 138.795C244.038 139.019 243.951 139.232 243.82 139.417C243.688 139.603 243.515 139.755 243.315 139.862C243.114 139.968 242.891 140.027 242.664 140.033L236.045 140.209C235.747 140.215 235.453 140.13 235.203 139.966C234.953 139.802 234.759 139.566 234.647 139.29L219.751 102.088C219.712 101.989 219.64 101.905 219.548 101.85C219.456 101.795 219.348 101.773 219.241 101.785C219.135 101.798 219.035 101.845 218.958 101.919C218.881 101.994 218.831 102.092 218.815 102.198L213.238 139.942C213.187 140.289 213.012 140.606 212.747 140.835C212.481 141.064 212.141 141.191 211.79 141.191Z" fill="#2F2E41"/>
<path d="M228.467 99.998C226.898 99.9968 225.37 99.501 224.1 98.5812L216.994 93.4597C215.435 92.3383 213.628 91.6075 211.727 91.3287L208.308 90.8308C207.783 90.7556 207.305 90.4882 206.966 90.0805C206.628 89.6729 206.453 89.1542 206.477 88.6252L207.839 56.052L207.031 51.4085C206.965 51.03 207.01 50.6407 207.16 50.2867C207.309 49.9328 207.557 49.6291 207.875 49.4117L214.208 45.0852C214.707 44.7448 215.307 44.5849 215.91 44.632L216.141 44.6502C216.79 44.7009 217.406 44.9539 217.903 45.3735C218.399 45.7931 218.751 46.3579 218.908 46.9882L219.151 47.958L223.365 55.4371C224.61 57.6474 225.546 60.0177 226.146 62.4818L230.141 78.8707C230.488 80.2965 230.728 81.7462 230.86 83.2077L232.183 97.9458C232.213 98.2647 232.138 98.5847 231.971 98.8577C231.803 99.1307 231.551 99.3419 231.252 99.4595C230.367 99.8145 229.421 99.9972 228.467 99.998Z" fill="#1A237E"/>
<path d="M215.211 88.1942C215.124 87.7574 215.134 87.3068 215.24 86.8742C215.347 86.4416 215.547 86.0375 215.826 85.6905C216.106 85.3434 216.458 85.0618 216.859 84.8654C217.259 84.669 217.698 84.5627 218.144 84.554L220.689 78.0717L225.011 78.6549L221.289 87.7587C221.254 88.5078 220.945 89.2181 220.421 89.755C219.896 90.292 219.193 90.6181 218.444 90.6718C217.695 90.7255 216.952 90.503 216.356 90.0463C215.76 89.5897 215.353 88.9307 215.211 88.1942Z" fill="#FFB8B8"/>
<path d="M224.452 83.6195C223.91 83.8618 223.296 83.8889 222.734 83.6951L218.772 82.3249C218.409 82.1999 218.083 81.9872 217.823 81.7058C217.562 81.4245 217.375 81.0832 217.279 80.7122L213.701 67.0199L208.941 57.9291C208.461 57.0086 208.349 55.94 208.63 54.9405C208.91 53.941 209.561 53.0856 210.45 52.5482C210.914 52.269 211.429 52.0845 211.964 52.0057C212.5 51.9268 213.046 51.9551 213.571 52.0888C214.095 52.2226 214.588 52.4591 215.02 52.7847C215.452 53.1103 215.815 53.5185 216.088 53.9855L222.483 64.933L225.658 72.1456C226.659 74.4351 226.904 76.9835 226.358 79.4216L225.773 82.0078C225.7 82.3273 225.561 82.628 225.365 82.8902C225.168 83.1525 224.918 83.3704 224.632 83.5297C224.573 83.5624 224.513 83.5923 224.452 83.6195Z" fill="#1A237E"/>
<path d="M182.24 110.767H5.7453C4.32168 110.765 2.95683 110.2 1.95017 109.195C0.943523 108.189 0.37728 106.827 0.375671 105.405V6.04407H187.61V105.405C187.608 106.827 187.042 108.189 186.035 109.195C185.029 110.2 183.664 110.765 182.24 110.767Z" fill="#E6E6E6"/>
<path d="M175.216 100.504H12.769C12.0356 100.504 11.3325 100.212 10.8139 99.6945C10.2953 99.1768 10.0036 98.4747 10.0028 97.7425V19.0678C10.0036 18.3355 10.2953 17.6335 10.8139 17.1157C11.3325 16.598 12.0356 16.3067 12.769 16.3059H175.216C175.95 16.3067 176.653 16.598 177.171 17.1157C177.69 17.6335 177.982 18.3355 177.982 19.0678V97.7425C177.982 98.4748 177.69 99.1768 177.171 99.6945C176.653 100.212 175.95 100.504 175.216 100.504Z" fill="white"/>
<path d="M187.986 9.66566H0V5.36123C0.00160726 3.93983 0.567851 2.57712 1.5745 1.57204C2.58116 0.566963 3.94601 0.00160475 5.36963 0H182.616C184.04 0.0016056 185.404 0.566963 186.411 1.57204C187.418 2.57712 187.984 3.93983 187.986 5.36123V9.66566Z" fill="#1A237E"/>
<path d="M54.1031 31.7468H25.1885C24.455 31.7473 23.7517 32.0385 23.233 32.5563C22.7144 33.0741 22.4228 33.7763 22.4223 34.5087V53.4842C22.4228 54.2165 22.7144 54.9187 23.233 55.4365C23.7517 55.9544 24.455 56.2455 25.1885 56.246H54.1031C54.8365 56.245 55.5394 55.9537 56.058 55.4359C56.5765 54.9182 56.8683 54.2163 56.8693 53.4842V34.5087C56.8683 33.7765 56.5765 33.0746 56.058 32.5569C55.5394 32.0392 54.8365 31.7479 54.1031 31.7468Z" fill="#E6E6E6"/>
<path d="M108.45 31.7468H79.5356C78.8021 31.7473 78.0988 32.0385 77.5801 32.5563C77.0615 33.0741 76.7699 33.7763 76.7694 34.5087V53.4842C76.7699 54.2165 77.0615 54.9187 77.5801 55.4365C78.0988 55.9544 78.8021 56.2455 79.5356 56.246H108.45C109.184 56.245 109.887 55.9537 110.405 55.4359C110.924 54.9182 111.215 54.2163 111.216 53.4842V34.5087C111.215 33.7765 110.924 33.0746 110.405 32.5569C109.887 32.0392 109.184 31.7479 108.45 31.7468Z" fill="#E6E6E6"/>
<path d="M162.797 31.7468H133.883C133.149 31.7473 132.446 32.0385 131.927 32.5563C131.409 33.0741 131.117 33.7763 131.117 34.5087V53.4842C131.117 54.2165 131.409 54.9187 131.927 55.4365C132.446 55.9544 133.149 56.2455 133.883 56.246H162.797C163.531 56.245 164.234 55.9537 164.752 55.4359C165.271 54.9182 165.563 54.2163 165.564 53.4842V34.5087C165.563 33.7765 165.271 33.0746 164.752 32.5569C164.234 32.0392 163.531 31.7479 162.797 31.7468Z" fill="#E6E6E6"/>
<path d="M50.0125 65.2139H29.2792C28.8714 65.2139 28.4803 65.3756 28.1919 65.6635C27.9036 65.9514 27.7416 66.342 27.7416 66.7491C27.7416 67.1563 27.9036 67.5468 28.1919 67.8347C28.4803 68.1226 28.8714 68.2844 29.2792 68.2844H50.0125C50.4203 68.2844 50.8114 68.1226 51.0998 67.8347C51.3882 67.5468 51.5502 67.1563 51.5502 66.7491C51.5502 66.342 51.3882 65.9514 51.0998 65.6635C50.8114 65.3756 50.4203 65.2139 50.0125 65.2139Z" fill="#E6E6E6"/>
<path d="M50.0125 73.6034H29.2792C28.9273 73.6027 28.5858 73.7227 28.3118 73.9433C28.0379 74.1639 27.848 74.4717 27.7741 74.8152C27.7002 75.1588 27.7466 75.5173 27.9056 75.8307C28.0646 76.1442 28.3266 76.3937 28.6478 76.5374C28.846 76.6277 29.0614 76.6742 29.2792 76.6739H50.0125C50.4203 76.6739 50.8114 76.5122 51.0998 76.2243C51.3882 75.9363 51.5502 75.5458 51.5502 75.1387C51.5502 74.7315 51.3882 74.341 51.0998 74.0531C50.8114 73.7652 50.4203 73.6034 50.0125 73.6034Z" fill="#E6E6E6"/>
<path d="M50.0125 81.9929H29.2792C28.8714 81.9929 28.4803 82.1547 28.1919 82.4426C27.9036 82.7305 27.7416 83.121 27.7416 83.5282C27.7416 83.9354 27.9036 84.3259 28.1919 84.6138C28.4803 84.9017 28.8714 85.0634 29.2792 85.0634H50.0125C50.4203 85.0634 50.8114 84.9017 51.0998 84.6138C51.3882 84.3259 51.5502 83.9354 51.5502 83.5282C51.5502 83.121 51.3882 82.7305 51.0998 82.4426C50.8114 82.1547 50.4203 81.9929 50.0125 81.9929Z" fill="#E6E6E6"/>
<path d="M104.36 65.2139H83.6263C83.2185 65.2139 82.8274 65.3756 82.5391 65.6635C82.2507 65.9514 82.0887 66.342 82.0887 66.7491C82.0887 67.1563 82.2507 67.5468 82.5391 67.8347C82.8274 68.1226 83.2185 68.2844 83.6263 68.2844H104.36C104.767 68.2844 105.159 68.1226 105.447 67.8347C105.735 67.5468 105.897 67.1563 105.897 66.7491C105.897 66.342 105.735 65.9514 105.447 65.6635C105.159 65.3756 104.767 65.2139 104.36 65.2139Z" fill="#E6E6E6"/>
<path d="M104.36 73.6034H83.6263C83.2185 73.6034 82.8274 73.7652 82.5391 74.0531C82.2507 74.341 82.0887 74.7315 82.0887 75.1387C82.0887 75.5458 82.2507 75.9363 82.5391 76.2243C82.8274 76.5122 83.2185 76.6739 83.6263 76.6739H104.36C104.767 76.6739 105.159 76.5122 105.447 76.2243C105.735 75.9363 105.897 75.5458 105.897 75.1387C105.897 74.7315 105.735 74.341 105.447 74.0531C105.159 73.7652 104.767 73.6034 104.36 73.6034Z" fill="#E6E6E6"/>
<path d="M104.36 81.9929H83.6263C83.2608 81.9925 82.9071 82.1221 82.6286 82.3585C82.3501 82.5949 82.165 82.9226 82.1067 83.2829C82.0483 83.6431 82.1204 84.0124 82.31 84.3244C82.4996 84.6364 82.7943 84.8708 83.1414 84.9855C83.2976 85.0379 83.4615 85.0643 83.6263 85.0634H104.36C104.767 85.0634 105.159 84.9017 105.447 84.6138C105.735 84.3259 105.897 83.9354 105.897 83.5282C105.897 83.121 105.735 82.7305 105.447 82.4426C105.159 82.1547 104.767 81.9929 104.36 81.9929Z" fill="#E6E6E6"/>
<path d="M158.707 65.2139H137.973C137.566 65.2139 137.175 65.3756 136.886 65.6635C136.598 65.9514 136.436 66.342 136.436 66.7491C136.436 67.1563 136.598 67.5468 136.886 67.8347C137.175 68.1226 137.566 68.2844 137.973 68.2844H158.707C159.115 68.2844 159.506 68.1226 159.794 67.8347C160.082 67.5468 160.244 67.1563 160.244 66.7491C160.244 66.342 160.082 65.9514 159.794 65.6635C159.506 65.3756 159.115 65.2139 158.707 65.2139Z" fill="#E6E6E6"/>
<path d="M158.707 73.6034H137.974C137.622 73.6027 137.28 73.7227 137.006 73.9433C136.732 74.1639 136.542 74.4717 136.468 74.8152C136.394 75.1588 136.441 75.5173 136.6 75.8307C136.759 76.1442 137.021 76.3937 137.342 76.5374C137.54 76.6277 137.756 76.6742 137.974 76.6739H158.707C159.115 76.6739 159.506 76.5122 159.794 76.2243C160.082 75.9363 160.244 75.5458 160.244 75.1387C160.244 74.7315 160.082 74.341 159.794 74.0531C159.506 73.7652 159.115 73.6034 158.707 73.6034Z" fill="#E6E6E6"/>
<path d="M158.707 81.9929H137.973C137.566 81.9929 137.175 82.1547 136.886 82.4426C136.598 82.7305 136.436 83.121 136.436 83.5282C136.436 83.9354 136.598 84.3259 136.886 84.6138C137.175 84.9017 137.566 85.0634 137.973 85.0634H158.707C159.115 85.0634 159.506 84.9017 159.794 84.6138C160.082 84.3259 160.244 83.9354 160.244 83.5282C160.244 83.121 160.082 82.7305 159.794 82.4426C159.506 82.1547 159.115 81.9929 158.707 81.9929Z" fill="#E6E6E6"/>
<path d="M6.15892 6.28149C6.92878 6.28149 7.55288 5.65836 7.55288 4.88971C7.55288 4.12105 6.92878 3.49792 6.15892 3.49792C5.38905 3.49792 4.76495 4.12105 4.76495 4.88971C4.76495 5.65836 5.38905 6.28149 6.15892 6.28149Z" fill="white"/>
<path d="M11.4501 6.28149C12.2199 6.28149 12.844 5.65836 12.844 4.88971C12.844 4.12105 12.2199 3.49792 11.4501 3.49792C10.6802 3.49792 10.0561 4.12105 10.0561 4.88971C10.0561 5.65836 10.6802 6.28149 11.4501 6.28149Z" fill="white"/>
<path d="M16.7412 6.28149C17.5111 6.28149 18.1352 5.65836 18.1352 4.88971C18.1352 4.12105 17.5111 3.49792 16.7412 3.49792C15.9713 3.49792 15.3472 4.12105 15.3472 4.88971C15.3472 5.65836 15.9713 6.28149 16.7412 6.28149Z" fill="white"/>
<path d="M44.1123 65.2139H29.2792C28.8714 65.2139 28.4803 65.3756 28.1919 65.6635C27.9036 65.9514 27.7416 66.342 27.7416 66.7491C27.7416 67.1563 27.9036 67.5468 28.1919 67.8347C28.4803 68.1226 28.8714 68.2844 29.2792 68.2844H43.8032C44.0971 68.1642 44.3527 67.9664 44.5426 67.7123C44.7325 67.4582 44.8496 67.1573 44.8813 66.8418C44.9131 66.5263 44.8583 66.2082 44.7228 65.9214C44.5874 65.6346 44.3763 65.3901 44.1123 65.2139Z" fill="#1A237E"/>
<path d="M37.262 73.6034H29.2792C28.9273 73.6027 28.5858 73.7227 28.3118 73.9433C28.0379 74.1639 27.848 74.4717 27.7741 74.8152C27.7002 75.1588 27.7466 75.5173 27.9056 75.8307C28.0646 76.1442 28.3266 76.3937 28.6478 76.5374H35.9798C36.4441 76.5373 36.8894 76.3531 37.2177 76.0253C37.546 75.6975 37.7305 75.2529 37.7306 74.7894C37.7331 74.3486 37.5653 73.9238 37.262 73.6034Z" fill="#1A237E"/>
<path d="M48.4634 81.9929H29.2792C28.8714 81.9929 28.4803 82.1547 28.1919 82.4426C27.9036 82.7305 27.7416 83.121 27.7416 83.5282C27.7416 83.9354 27.9036 84.3259 28.1919 84.6138C28.4803 84.9017 28.8714 85.0634 29.2792 85.0634H48.587C48.8589 84.9033 49.0823 84.6725 49.2333 84.3956C49.3844 84.1188 49.4574 83.8063 49.4448 83.4913C49.4321 83.1763 49.3341 82.8706 49.1613 82.6068C48.9885 82.3429 48.7473 82.1308 48.4634 81.9929Z" fill="#1A237E"/>
<path d="M143.08 65.2139H137.974C137.633 65.2135 137.302 65.326 137.032 65.5336C136.763 65.7413 136.57 66.0325 136.484 66.3614C136.398 66.6904 136.424 67.0385 136.557 67.3512C136.691 67.664 136.924 67.9236 137.222 68.0894H141.745C142.21 68.0893 142.655 67.905 142.983 67.5773C143.311 67.2495 143.496 66.8049 143.496 66.3414C143.497 65.9278 143.35 65.5275 143.08 65.2139Z" fill="#1A237E"/>
<path d="M146.933 73.6034H137.974C137.622 73.6027 137.28 73.7227 137.006 73.9433C136.732 74.1639 136.542 74.4717 136.468 74.8152C136.394 75.1588 136.441 75.5173 136.6 75.8307C136.759 76.1442 137.021 76.3937 137.342 76.5374H145.65C146.115 76.5373 146.56 76.3531 146.888 76.0253C147.217 75.6975 147.401 75.2529 147.401 74.7894C147.404 74.3486 147.236 73.9238 146.933 73.6034Z" fill="#1A237E"/>
<path d="M153.252 81.9929H137.973C137.566 81.9929 137.175 82.1547 136.886 82.4426C136.598 82.7305 136.436 83.121 136.436 83.5282C136.436 83.9354 136.598 84.3259 136.886 84.6138C137.175 84.9017 137.566 85.0634 137.973 85.0634H153.376C153.648 84.9033 153.871 84.6725 154.022 84.3956C154.173 84.1188 154.246 83.8063 154.234 83.4913C154.221 83.1763 154.123 82.8706 153.95 82.6068C153.778 82.3429 153.536 82.1308 153.252 81.9929Z" fill="#1A237E"/>
<path d="M102.918 73.6034H83.6264C83.2185 73.6034 82.8274 73.7652 82.5391 74.0531C82.2507 74.341 82.0887 74.7315 82.0887 75.1387C82.0887 75.5458 82.2507 75.9363 82.5391 76.2243C82.8274 76.5122 83.2185 76.6739 83.6264 76.6739H102.83C103.112 76.5326 103.35 76.3177 103.52 76.052C103.689 75.7863 103.784 75.4797 103.793 75.1649C103.802 74.85 103.725 74.5386 103.571 74.2636C103.417 73.9887 103.191 73.7606 102.918 73.6034Z" fill="#1A237E"/>
<path d="M85.6961 81.9929H83.6264C83.2608 81.9925 82.9071 82.1221 82.6286 82.3585C82.3501 82.5949 82.165 82.9226 82.1067 83.2829C82.0483 83.6431 82.1204 84.0124 82.31 84.3244C82.4996 84.6364 82.7944 84.8708 83.1414 84.9855H84.4692C84.9335 84.9853 85.3787 84.8011 85.707 84.4733C86.0353 84.1455 86.2198 83.7009 86.22 83.2374C86.2208 83.0054 86.1749 82.7757 86.0849 82.5619C85.9948 82.3481 85.8626 82.1546 85.6961 81.9929Z" fill="#1A237E"/>
<path d="M94.8797 65.2139H83.6264C83.2185 65.2139 82.8274 65.3756 82.5391 65.6635C82.2507 65.9514 82.0887 66.342 82.0887 66.7491C82.0887 67.1563 82.2507 67.5468 82.5391 67.8347C82.8274 68.1226 83.2185 68.2844 83.6264 68.2844H94.5706C94.8644 68.1642 95.12 67.9664 95.3099 67.7123C95.4998 67.4582 95.6169 67.1573 95.6487 66.8418C95.6805 66.5263 95.6257 66.2082 95.4902 65.9214C95.3547 65.6346 95.1437 65.3901 94.8797 65.2139Z" fill="#1A237E"/>
<path d="M254.675 151H184.056C183.97 151 183.887 150.966 183.826 150.905C183.765 150.844 183.73 150.761 183.73 150.675C183.73 150.589 183.765 150.506 183.826 150.445C183.887 150.384 183.97 150.35 184.056 150.35H254.675C254.761 150.35 254.844 150.384 254.905 150.445C254.966 150.506 255 150.589 255 150.675C255 150.761 254.966 150.844 254.905 150.905C254.844 150.966 254.761 151 254.675 151Z" fill="#CCCCCC"/>
</g>
<defs>
<clipPath id="clip0_18_188">
<rect width="255" height="151" fill="white"/>
</clipPath>
</defs>
</svg>
