<svg width="205" height="198" viewBox="0 0 205 198" fill="none" xmlns="http://www.w3.org/2000/svg">
<g clip-path="url(#clip0_18_229)">
<path d="M17.9712 197.803V177.946C17.9712 177.946 10.2242 192.023 17.9712 197.803Z" fill="#F1F1F1"/>
<path d="M17.4927 197.799L32.1366 184.371C32.1366 184.371 16.5156 188.19 17.4927 197.799Z" fill="#F1F1F1"/>
<path d="M69.1428 87.6136L146.852 132.98C147.124 133.139 147.448 133.183 147.752 133.103C148.057 133.023 148.317 132.826 148.476 132.555L198.448 47.1511C198.607 46.8795 198.651 46.5561 198.571 46.2519C198.491 45.9477 198.294 45.6876 198.022 45.5286L120.313 0.161824C120.041 0.00345713 119.717 -0.0406817 119.413 0.0390906C119.108 0.118863 118.848 0.316033 118.689 0.587344L68.7168 85.9911C68.5583 86.2627 68.5141 86.5861 68.5939 86.8903C68.6738 87.1945 68.8712 87.4546 69.1428 87.6136Z" fill="white"/>
<path d="M69.1428 87.6136L146.852 132.98C147.124 133.139 147.448 133.183 147.752 133.103C148.057 133.023 148.317 132.826 148.476 132.555L198.448 47.1511C198.607 46.8795 198.651 46.5561 198.571 46.2519C198.491 45.9477 198.294 45.6876 198.022 45.5286L120.313 0.161824C120.041 0.00345713 119.717 -0.0406817 119.413 0.0390906C119.108 0.118863 118.848 0.316033 118.689 0.587344L68.7168 85.9911C68.5583 86.2627 68.5141 86.5861 68.5939 86.8903C68.6738 87.1945 68.8712 87.4546 69.1428 87.6136ZM197.783 45.9382C197.946 46.0336 198.064 46.1897 198.112 46.3722C198.16 46.5547 198.133 46.7487 198.038 46.9117L148.066 132.315C147.971 132.478 147.814 132.597 147.632 132.644C147.449 132.692 147.255 132.666 147.092 132.571L69.3825 87.204C69.2195 87.1086 69.1011 86.9525 69.0531 86.77C69.0052 86.5875 69.0317 86.3935 69.1269 86.2305L119.099 0.826734C119.194 0.663939 119.351 0.54563 119.533 0.497766C119.716 0.449901 119.91 0.47639 120.074 0.57142L197.783 45.9382Z" fill="#3F3D56"/>
<path d="M147.831 54.4432L167.104 65.6952C167.376 65.8535 167.7 65.8977 168.005 65.8179C168.309 65.7381 168.57 65.541 168.729 65.2696L179.993 46.018C180.152 45.7463 180.196 45.4229 180.116 45.1187C180.036 44.8145 179.839 44.5544 179.567 44.3954L160.294 33.1435C160.022 32.9851 159.698 32.941 159.394 33.0208C159.089 33.1006 158.829 33.2977 158.67 33.569L147.405 52.8207C147.246 53.0924 147.202 53.4158 147.282 53.72C147.362 54.0241 147.559 54.2843 147.831 54.4432ZM179.328 44.805C179.491 44.9004 179.609 45.0565 179.657 45.239C179.705 45.4215 179.678 45.6156 179.583 45.7786L168.319 65.0302C168.223 65.193 168.067 65.3113 167.884 65.3592C167.701 65.4071 167.507 65.3806 167.344 65.2855L148.071 54.0336C147.908 53.9382 147.789 53.7822 147.741 53.5997C147.693 53.4172 147.72 53.2231 147.815 53.0601L159.08 33.8084C159.175 33.6456 159.331 33.5273 159.514 33.4795C159.697 33.4316 159.891 33.4581 160.054 33.5531L179.328 44.805Z" fill="#F2F2F2"/>
<path d="M151.989 60.0304L171.262 71.2823C171.507 71.4248 171.798 71.4646 172.073 71.3928C172.347 71.321 172.581 71.1435 172.724 70.8993L183.989 51.6477C184.132 51.4032 184.171 51.1121 184.099 50.8383C184.028 50.5646 183.85 50.3305 183.605 50.1874L164.332 38.9355C164.087 38.7929 163.796 38.7532 163.522 38.825C163.248 38.8968 163.013 39.0743 162.87 39.3184L151.605 58.5701C151.463 58.8146 151.423 59.1057 151.495 59.3794C151.567 59.6532 151.744 59.8873 151.989 60.0304Z" fill="#1A237E"/>
<path d="M105.469 45.5111L165.75 80.7033C165.994 80.8461 166.286 80.886 166.56 80.8142C166.834 80.7424 167.069 80.5647 167.212 80.3203C167.355 80.0759 167.395 79.7847 167.323 79.5108C167.251 79.237 167.073 79.0029 166.828 78.86L106.547 43.6678C106.426 43.5971 106.292 43.5509 106.153 43.5319C106.014 43.5128 105.873 43.5213 105.737 43.5569C105.601 43.5925 105.474 43.6544 105.362 43.7391C105.25 43.8239 105.156 43.9298 105.085 44.0508C105.015 44.1718 104.968 44.3056 104.949 44.4445C104.93 44.5834 104.939 44.7247 104.974 44.8603C105.01 44.9959 105.072 45.1231 105.157 45.2348C105.242 45.3465 105.348 45.4404 105.469 45.5111Z" fill="#CCCCCC"/>
<path d="M116.312 60.359L162.035 87.0524C162.156 87.1231 162.29 87.1693 162.429 87.1884C162.568 87.2074 162.709 87.1989 162.845 87.1633C163.119 87.0915 163.354 86.9138 163.497 86.6694C163.64 86.425 163.68 86.1338 163.608 85.8599C163.536 85.5861 163.358 85.352 163.113 85.2091L117.39 58.5157C117.269 58.445 117.135 58.3988 116.996 58.3798C116.857 58.3607 116.715 58.3692 116.58 58.4048C116.444 58.4404 116.317 58.5023 116.205 58.587C116.093 58.6718 115.999 58.7777 115.928 58.8987C115.857 59.0197 115.811 59.1535 115.792 59.2924C115.773 59.4313 115.781 59.5726 115.817 59.7082C115.853 59.8438 115.915 59.971 116 60.0827C116.084 60.1944 116.19 60.2882 116.312 60.359Z" fill="#CCCCCC"/>
<path d="M119.335 22.2831L145.99 37.8442C146.235 37.9871 146.526 38.027 146.8 37.9552C147.075 37.8834 147.309 37.7057 147.452 37.4613C147.595 37.2168 147.635 36.9257 147.563 36.6518C147.491 36.378 147.313 36.1438 147.069 36.001L120.414 20.4398C120.169 20.297 119.878 20.257 119.603 20.3289C119.468 20.3644 119.34 20.4263 119.228 20.5111C119.117 20.5958 119.023 20.7018 118.952 20.8228C118.881 20.9438 118.835 21.0776 118.816 21.2165C118.797 21.3554 118.805 21.4966 118.841 21.6322C118.876 21.7678 118.938 21.8951 119.023 22.0068C119.108 22.1184 119.214 22.2123 119.335 22.2831Z" fill="#CCCCCC"/>
<path d="M122.272 32.5157L142.275 44.1934C142.396 44.2641 142.53 44.3103 142.669 44.3293C142.808 44.3484 142.95 44.3399 143.086 44.3043C143.221 44.2687 143.349 44.2068 143.461 44.1221C143.572 44.0373 143.666 43.9314 143.737 43.8104C143.808 43.6894 143.854 43.5556 143.873 43.4167C143.892 43.2778 143.884 43.1365 143.848 43.0009C143.813 42.8653 143.751 42.7381 143.666 42.6264C143.581 42.5147 143.475 42.4208 143.354 42.3501L123.351 30.6725C123.106 30.5296 122.815 30.4897 122.541 30.5615C122.266 30.6334 122.032 30.811 121.889 31.0554C121.746 31.2999 121.706 31.5911 121.778 31.8649C121.85 32.1388 122.028 32.3729 122.272 32.5157Z" fill="#CCCCCC"/>
<path d="M98.039 58.2091L158.32 93.4013C158.565 93.5441 158.856 93.584 159.13 93.5122C159.404 93.4404 159.639 93.2627 159.782 93.0183C159.925 92.7739 159.965 92.4827 159.893 92.2088C159.821 91.935 159.643 91.7009 159.398 91.558L99.1175 56.3658C98.8728 56.223 98.5813 56.1831 98.3071 56.2549C98.033 56.3267 97.7986 56.5044 97.6556 56.7488C97.5125 56.9932 97.4726 57.2844 97.5445 57.5583C97.6164 57.8321 97.7943 58.0662 98.039 58.2091Z" fill="#CCCCCC"/>
<path d="M108.882 73.057L154.605 99.7504C154.726 99.8211 154.86 99.8673 154.999 99.8864C155.138 99.9054 155.28 99.8969 155.415 99.8613C155.551 99.8258 155.678 99.7638 155.79 99.6791C155.902 99.5943 155.996 99.4884 156.067 99.3674C156.138 99.2464 156.184 99.1126 156.203 98.9737C156.222 98.8348 156.214 98.6935 156.178 98.5579C156.142 98.4223 156.08 98.2951 155.996 98.1834C155.911 98.0717 155.805 97.9779 155.683 97.9071L109.96 71.2137C109.839 71.143 109.705 71.0968 109.566 71.0778C109.427 71.0587 109.286 71.0672 109.15 71.1028C109.014 71.1384 108.887 71.2003 108.775 71.285C108.663 71.3698 108.569 71.4757 108.498 71.5967C108.427 71.7177 108.381 71.8515 108.362 71.9904C108.343 72.1293 108.352 72.2706 108.387 72.4062C108.423 72.5418 108.485 72.669 108.57 72.7807C108.654 72.8924 108.761 72.9862 108.882 73.057Z" fill="#CCCCCC"/>
<path d="M90.6091 70.9071L150.89 106.099C151.011 106.17 151.145 106.216 151.284 106.235C151.423 106.254 151.565 106.246 151.7 106.21C151.836 106.175 151.964 106.113 152.075 106.028C152.187 105.943 152.281 105.837 152.352 105.716C152.423 105.595 152.469 105.461 152.488 105.323C152.507 105.184 152.499 105.042 152.463 104.907C152.427 104.771 152.365 104.644 152.281 104.532C152.196 104.421 152.09 104.327 151.969 104.256L91.6876 69.0638C91.5664 68.9931 91.4325 68.9469 91.2935 68.9279C91.1544 68.9088 91.013 68.9173 90.8772 68.9529C90.7415 68.9884 90.6141 69.0504 90.5023 69.1351C90.3905 69.2199 90.2965 69.3258 90.2257 69.4468C90.1548 69.5678 90.1086 69.7016 90.0895 69.8405C90.0705 69.9794 90.079 70.1207 90.1146 70.2563C90.1502 70.3919 90.2122 70.5191 90.297 70.6308C90.3819 70.7425 90.4879 70.8363 90.6091 70.9071Z" fill="#CCCCCC"/>
<path d="M86.8941 77.256L147.175 112.448C147.296 112.519 147.43 112.565 147.569 112.584C147.708 112.603 147.85 112.595 147.985 112.559C148.121 112.524 148.249 112.462 148.36 112.377C148.472 112.292 148.566 112.186 148.637 112.065C148.708 111.944 148.754 111.81 148.773 111.671C148.792 111.533 148.784 111.391 148.748 111.256C148.712 111.12 148.65 110.993 148.566 110.881C148.481 110.77 148.375 110.676 148.254 110.605L87.9727 75.4127C87.8515 75.342 87.7176 75.2958 87.5785 75.2767C87.4395 75.2577 87.2981 75.2662 87.1623 75.3018C87.0265 75.3373 86.8991 75.3993 86.7873 75.484C86.6755 75.5687 86.5816 75.6747 86.5107 75.7957C86.4399 75.9167 86.3937 76.0505 86.3746 76.1894C86.3555 76.3283 86.3641 76.4695 86.3997 76.6051C86.4353 76.7407 86.4972 76.868 86.5821 76.9797C86.6669 77.0913 86.773 77.1852 86.8941 77.256Z" fill="#CCCCCC"/>
<path d="M106.388 101.972C105.55 100.986 104.796 99.9333 104.134 98.8231C103.54 97.8215 102.957 96.7507 102.826 95.576C102.759 95.0758 102.811 94.5669 102.979 94.0907C103.146 93.6144 103.423 93.1842 103.788 92.8352C104.14 92.5104 104.587 92.3063 105.064 92.2522C105.54 92.1981 106.022 92.2968 106.438 92.5342C106.86 92.7759 107.208 93.127 107.446 93.5502C107.685 93.9735 107.804 94.4533 107.791 94.9387C107.757 95.4731 107.602 95.9929 107.339 96.4593C107.076 96.9258 106.71 97.3268 106.27 97.6324C104.488 98.9219 101.706 98.8545 99.8065 97.8733C97.6675 96.768 96.5623 93.8763 98.2428 91.8969C98.5924 91.4852 99.174 91.9453 99.0864 92.3894C98.9754 92.9893 98.6392 93.5242 98.1466 93.8849C97.654 94.2455 97.0421 94.4047 96.436 94.3298C95.8298 94.255 95.2752 93.9518 94.8853 93.4823C94.4954 93.0127 94.2997 92.4121 94.3382 91.8033L95.0936 92.2443C94.1675 92.6541 93.1496 92.813 92.1424 92.7051C91.1351 92.5971 90.1742 92.2262 89.3561 91.6295C88.9514 91.3358 88.59 90.9869 88.2824 90.5929C87.9126 90.1111 87.2914 89.7997 86.7884 89.4526L83.1637 86.9509C82.6306 86.5829 83.1375 85.7059 83.6751 86.077L86.9578 88.3427C87.5049 88.7202 88.0555 89.0932 88.5992 89.4755C88.9879 89.7489 89.227 90.1901 89.5807 90.5147C90.2503 91.1163 91.0773 91.5154 91.9653 91.6655C92.8534 91.8155 93.7658 91.7103 94.5963 91.3622C94.6736 91.3206 94.7604 91.2996 94.8482 91.3012C94.936 91.3027 95.022 91.3268 95.0978 91.3711C95.1736 91.4154 95.2368 91.4783 95.2813 91.554C95.3257 91.6297 95.35 91.7155 95.3517 91.8032C95.3117 92.1665 95.417 92.5309 95.6447 92.817C95.8724 93.1031 96.2041 93.2878 96.5674 93.3308C96.9308 93.3738 97.2965 93.2716 97.5848 93.0466C97.8731 92.8215 98.0608 92.4918 98.1068 92.1292L98.9505 92.6217C97.8664 93.8986 98.5883 95.8572 99.8372 96.714C101.234 97.6722 103.298 97.8385 104.872 97.2429C105.258 97.1102 105.613 96.8993 105.914 96.6235C106.215 96.3477 106.456 96.0128 106.621 95.6399C106.775 95.303 106.819 94.9265 106.747 94.5634C106.674 94.2003 106.49 93.869 106.22 93.6161C105.985 93.3847 105.67 93.2534 105.34 93.2499C105.011 93.2464 104.693 93.371 104.453 93.5973C104.193 93.8631 104.002 94.1889 103.897 94.5459C103.792 94.903 103.776 95.2803 103.851 95.6448C104.014 96.6589 104.575 97.594 105.097 98.4602C105.693 99.4472 106.368 100.385 107.113 101.265C107.531 101.759 106.81 102.471 106.388 101.972Z" fill="#1A237E"/>
<path d="M97.3908 126.039C97.3034 126.129 97.2233 126.225 97.1511 126.328L85.926 126.053L84.6165 123.663L80.7468 125.166L82.6534 129.622C82.8074 129.982 83.0742 130.283 83.4137 130.478C83.7532 130.674 84.1471 130.754 84.5362 130.707L97.2185 129.177C97.5177 129.555 97.925 129.834 98.3865 129.975C98.8479 130.116 99.3414 130.114 99.8015 129.969C100.262 129.823 100.666 129.541 100.962 129.16C101.258 128.779 101.43 128.317 101.457 127.836C101.483 127.354 101.362 126.876 101.11 126.465C100.858 126.054 100.486 125.729 100.045 125.534C99.6035 125.339 99.1132 125.283 98.6391 125.373C98.1649 125.464 97.7295 125.696 97.3908 126.039Z" fill="#FFB7B7"/>
<path d="M60.7985 194.133H64.4893L66.2452 179.913L60.7979 179.913L60.7985 194.133Z" fill="#FFB7B7"/>
<path d="M59.8573 197.707L71.7582 197.707V197.556C71.7582 196.329 71.2701 195.152 70.4014 194.285C69.5327 193.417 68.3545 192.93 67.126 192.929H67.1258L59.857 192.93L59.8573 197.707Z" fill="#2F2E41"/>
<path d="M94.3132 194.052L97.7072 192.603L93.7295 178.837L88.7202 180.975L94.3132 194.052Z" fill="#FFB7B7"/>
<path d="M94.8529 197.707L105.797 193.037L105.738 192.899C105.255 191.77 104.344 190.879 103.204 190.422C102.063 189.965 100.788 189.979 99.6585 190.461L99.6582 190.461L92.974 193.314L94.8529 197.707Z" fill="#2F2E41"/>
<path d="M78.7387 129.12L79.0058 133.44L71.204 134.274L63.0408 135.146L65.4436 128.586L78.7387 129.12Z" fill="#FFB7B7"/>
<path d="M79.2514 133.495L82.2822 112.391L77.029 110.671L75.4861 108.557L67.9777 109.001L66.8754 111.468L62.8718 113.357L63.4871 124.771L63.0382 134.319L79.2514 133.495Z" fill="#2F2E41"/>
<path d="M81.1589 127.84L86.5023 125.704L86.4795 125.609C86.4566 125.513 84.1824 116.021 83.8804 114.495C83.5658 112.906 82.4166 112.467 82.3678 112.449L82.3321 112.436L80.2175 113.078L79.2888 120.367L81.1589 127.84Z" fill="#2F2E41"/>
<path d="M91.5642 191.552L98.677 190.095L87.3086 158.761L83.4178 148.073C83.4178 148.073 80.9501 139.504 79.8352 136.188L79.1623 131.739L63.2345 133.5C63.2345 133.5 58.7859 140.025 60.1373 150.662L59.5261 190.641L66.6389 191.006L72.5967 150.685L83.0531 172.788C83.0531 172.788 86.3489 182.221 88.7069 184.265L91.5642 191.552Z" fill="#2F2E41"/>
<path d="M69.6219 134.984C69.4967 134.981 69.3714 134.987 69.2472 135.004L61.8166 126.596L62.6809 124.011L58.9468 122.198L56.9715 126.625C56.8119 126.983 56.7728 127.382 56.86 127.764C56.9471 128.146 57.1559 128.489 57.455 128.742L67.2012 136.991C67.1269 137.467 67.1995 137.955 67.4094 138.389C67.6193 138.823 67.9566 139.183 68.3763 139.421C68.796 139.659 69.2784 139.764 69.7591 139.721C70.2399 139.679 70.6963 139.491 71.0676 139.183C71.439 138.875 71.7077 138.462 71.838 137.997C71.9683 137.533 71.954 137.04 71.797 136.584C71.6401 136.129 71.3479 135.731 70.9594 135.445C70.5708 135.159 70.1043 134.998 69.6219 134.984Z" fill="#FFB7B7"/>
<path d="M62.4097 127.414L65.5094 120.131L64.3004 115.058L62.9978 113.414C62.9024 113.373 62.7996 113.353 62.6958 113.354C62.5921 113.355 62.4896 113.377 62.395 113.42C61.9146 113.613 61.5055 114.205 61.179 115.179L58.2741 123.444L62.4097 127.414Z" fill="#2F2E41"/>
<path d="M78.4915 105.859V100.368C78.4915 98.4169 77.7155 96.5455 76.3341 95.1657C74.9528 93.7859 73.0792 93.0107 71.1257 93.0107C69.1722 93.0107 67.2987 93.7859 65.9173 95.1657C64.536 96.5455 63.7599 98.4169 63.7599 100.368V105.859C63.7602 106.121 63.8646 106.372 64.05 106.557C64.2355 106.743 64.487 106.847 64.7494 106.847H77.5021C77.7644 106.847 78.0159 106.743 78.2014 106.557C78.3869 106.372 78.4912 106.121 78.4915 105.859Z" fill="#2F2E41"/>
<path d="M72.6393 106.719C69.6568 106.719 67.239 104.304 67.239 101.325C67.239 98.3457 69.6568 95.9307 72.6393 95.9307C75.6219 95.9307 78.0397 98.3457 78.0397 101.325C78.0397 104.304 75.6219 106.719 72.6393 106.719Z" fill="#FFB7B7"/>
<path d="M80.2341 100.807C80.2324 99.2643 79.6179 97.785 78.5256 96.6939C77.4332 95.6028 75.9522 94.989 74.4074 94.9873H73.308C71.7632 94.989 70.2822 95.6028 69.1899 96.6939C68.0975 97.785 67.4831 99.2643 67.4814 100.807V100.917H69.8047L70.5971 98.7008L70.7556 100.917H71.9563L72.3561 99.7989L72.4361 100.917H80.2341L80.2341 100.807Z" fill="#2F2E41"/>
<path d="M73.1708 107.464C73.2799 107.317 73.345 107.142 73.3587 106.959C73.3724 106.776 73.3341 106.593 73.2483 106.431C72.0832 104.217 70.452 100.127 72.6172 97.6051L72.7728 97.4238H66.4872V106.85L72.1972 107.856C72.255 107.867 72.3136 107.872 72.3723 107.872C72.5282 107.872 72.6818 107.835 72.8206 107.764C72.9594 107.693 73.0794 107.591 73.1708 107.464Z" fill="#2F2E41"/>
<path d="M146.494 191.027L143.159 192.218L136.973 179.933L141.896 178.176L146.494 191.027Z" fill="#9F616A"/>
<path d="M148.501 193.953L146.956 189.635L140.387 191.981C139.277 192.378 138.371 193.199 137.867 194.263C137.362 195.327 137.301 196.548 137.697 197.657L137.745 197.793L148.501 193.953Z" fill="#2F2E41"/>
<path d="M124.804 194.323L121.262 194.322L119.576 180.675L124.804 180.675L124.804 194.323Z" fill="#9F616A"/>
<path d="M125.707 193.168L118.731 193.167H118.731C118.147 193.167 117.569 193.282 117.03 193.505C116.491 193.728 116 194.055 115.588 194.468C115.175 194.88 114.847 195.37 114.624 195.908C114.4 196.447 114.285 197.025 114.285 197.608V197.752L125.707 197.752L125.707 193.168Z" fill="#2F2E41"/>
<path d="M132.877 107.133L131.336 104.092C131.336 104.092 125.597 105.528 125.075 108.851L132.877 107.133Z" fill="#F1F1F1"/>
<path d="M139.233 141.899L135.044 165.251L146.167 184.901L139.522 187.499L128.254 168.451L126.809 163.256L125.942 190.385L119.949 190.203L117.201 164.871L121.608 141.322L139.233 141.899Z" fill="#2F2E41"/>
<path d="M131.28 147.419C137.435 147.419 141.343 146.244 141.43 146.225L141.572 146.195L138.366 131.349L138.222 117.655C138.222 111.852 134.398 107.574 133.868 107.179C133.778 106.827 133.613 106.498 133.383 106.216C133.154 105.934 132.865 105.706 132.538 105.547C131.263 104.969 129.704 105.662 129.639 105.692L124.961 107.444L124.939 107.509C124.882 107.675 118.721 127.88 118.721 127.88C118.721 127.88 119.094 145.534 119.224 146.112C119.224 146.112 127.861 147.419 131.28 147.419Z" fill="#3F3D56"/>
<path d="M126.551 103.135C123.059 103.135 120.229 100.307 120.229 96.8194C120.229 93.3314 123.059 90.5039 126.551 90.5039C130.043 90.5039 132.874 93.3314 132.874 96.8194C132.874 100.307 130.043 103.135 126.551 103.135Z" fill="#9F616A"/>
<path opacity="0.2" d="M133.601 118.775L122.539 134.191L120.906 126.992L133.601 118.775Z" fill="black"/>
<path d="M98.9212 129.264C99.2323 129.51 99.5935 129.685 99.9795 129.776C100.366 129.867 100.767 129.873 101.155 129.792C101.544 129.712 101.91 129.547 102.228 129.31C102.545 129.073 102.807 128.77 102.995 128.421L112.516 129.943L110.453 125.382L101.728 124.635C101.12 124.36 100.432 124.316 99.794 124.513C99.156 124.71 98.6125 125.134 98.2664 125.704C97.9204 126.275 97.796 126.952 97.9166 127.609C98.0373 128.265 98.3947 128.854 98.9212 129.264Z" fill="#9F616A"/>
<path d="M109.963 125.122L106.542 124.787L105.594 129.554L109.899 129.63L109.963 125.122Z" fill="#F1F1F1"/>
<path d="M107.159 131.215L123.913 129.724L132.373 116.285L132.399 116.166C132.639 115.069 132.471 113.921 131.926 112.938C131.381 111.955 130.497 111.204 129.438 110.824C128.379 110.445 127.218 110.463 126.171 110.876C125.125 111.289 124.265 112.069 123.752 113.069L118.786 122.745L108.763 124.258L107.159 131.215Z" fill="#3F3D56"/>
<path d="M131.937 102.303L126.689 102.491C126.369 102.502 125.501 99.054 125.387 98.3386C125.297 97.8729 125.041 97.4558 124.666 97.1651C124.291 96.8745 123.822 96.7302 123.348 96.7592C122.955 96.7963 121.965 96.0632 120.943 95.1952C119.002 93.5472 119.103 90.452 121.235 89.0594C121.293 89.0214 121.35 88.9866 121.406 88.9552C122.751 88.2033 124.324 87.9508 125.865 87.9316C127.262 87.9141 128.699 88.0898 129.93 88.7502C132.136 89.9343 133.31 92.5219 133.414 95.0217C133.517 97.5214 132.714 99.9657 131.804 102.296" fill="#2F2E41"/>
<path d="M0.384064 198H204.725C204.798 198 204.868 197.971 204.92 197.92C204.971 197.868 205 197.798 205 197.726C205 197.653 204.971 197.583 204.92 197.532C204.868 197.48 204.798 197.451 204.725 197.451H0.274796C0.20192 197.451 0.132019 197.48 0.0804901 197.532C0.0289612 197.583 0 197.653 0 197.726C0 197.877 0.232315 198 0.384064 198Z" fill="#CBCBCB"/>
</g>
<defs>
<clipPath id="clip0_18_229">
<rect width="205" height="198" fill="white" transform="matrix(-1 0 0 1 205 0)"/>
</clipPath>
</defs>
</svg>
