<svg width="231" height="138" viewBox="0 0 231 138" fill="none" xmlns="http://www.w3.org/2000/svg">
<g clip-path="url(#clip0_18_91)">
<path d="M89.687 123.645C88.444 124.08 87.1095 124.189 85.812 123.962C84.5144 123.734 83.2976 123.177 82.2788 122.344C79.684 120.172 78.8705 116.595 78.2086 113.283L76.2507 103.486L80.3497 106.3C83.2975 108.324 86.3117 110.412 88.3528 113.343C90.3938 116.274 91.2848 120.276 89.6448 123.447" fill="#E6E6E6"/>
<path d="M89.3366 135.506C89.7515 132.493 90.1781 129.442 89.8871 126.397C89.6286 123.692 88.801 121.051 87.1162 118.885C86.2219 117.737 85.1336 116.754 83.9005 115.98C83.5789 115.777 83.2829 116.285 83.6031 116.487C85.7369 117.831 87.3873 119.817 88.3163 122.156C89.3425 124.759 89.5072 127.595 89.3304 130.359C89.2235 132.031 88.9968 133.691 88.7685 135.35C88.7505 135.425 88.7617 135.504 88.7999 135.571C88.8381 135.638 88.9004 135.688 88.9742 135.711C89.0495 135.731 89.1298 135.721 89.1977 135.683C89.2655 135.644 89.3154 135.581 89.3366 135.506Z" fill="#F2F2F2"/>
<path d="M85.3405 130.175C84.8075 130.983 84.0747 131.64 83.2129 132.083C82.351 132.527 81.3892 132.742 80.42 132.707C77.9291 132.589 75.8525 130.856 73.9831 129.21L68.454 124.343L72.1133 124.169C74.7449 124.043 77.4444 123.926 79.9509 124.735C82.4574 125.544 84.7691 127.491 85.2274 130.078" fill="#E6E6E6"/>
<path d="M90.5091 137.238C88.5122 133.715 86.196 129.8 82.0573 128.549C80.9066 128.202 79.6999 128.078 78.5024 128.183C78.125 128.216 78.2192 128.796 78.596 128.763C80.6033 128.597 82.6068 129.126 84.2691 130.26C85.8687 131.345 87.1142 132.854 88.1683 134.455C88.814 135.435 89.3924 136.457 89.9709 137.477C90.1557 137.803 90.6961 137.568 90.5091 137.238Z" fill="#F2F2F2"/>
<path d="M144.031 66.6696L100.496 102.643C99.9482 103.095 99.2431 103.311 98.5354 103.245C97.8277 103.179 97.1752 102.836 96.721 102.291L78.3688 80.2145C77.9158 79.6684 77.6986 78.9655 77.7649 78.2599C77.8311 77.5543 78.1754 76.9038 78.7221 76.451L122.258 40.4776C122.805 40.026 123.51 39.8095 124.218 39.8755C124.926 39.9416 125.578 40.2848 126.033 40.8299L144.385 62.906C144.838 63.4522 145.055 64.1551 144.989 64.8607C144.922 65.5662 144.578 66.2168 144.031 66.6696Z" fill="#CCCCCC"/>
<path d="M142.287 65.5865L99.7521 100.733C99.47 100.965 99.1067 101.077 98.7422 101.043C98.3776 101.009 98.0414 100.832 97.8075 100.551L80.2847 79.473C80.0514 79.1917 79.9395 78.8295 79.9736 78.4661C80.0077 78.1026 80.1851 77.7675 80.4668 77.5342L123.001 42.3878C123.284 42.1552 123.647 42.0436 124.011 42.0777C124.376 42.1117 124.712 42.2885 124.946 42.5693L142.469 63.6476C142.702 63.929 142.814 64.2911 142.78 64.6546C142.746 65.0181 142.568 65.3532 142.287 65.5865Z" fill="white"/>
<path d="M144.248 72.9436L135.499 72.1272L141.761 67.2141L145.134 71.2715C145.265 71.4264 145.347 71.6172 145.368 71.819C145.389 72.0209 145.348 72.2243 145.251 72.4027C145.187 72.5238 145.1 72.6312 144.995 72.7188C144.891 72.8037 144.772 72.8673 144.644 72.9059C144.516 72.9445 144.381 72.9573 144.248 72.9436Z" fill="#CCCCCC"/>
<path d="M126.679 57.3211L105.162 75.101C105.03 75.2096 104.879 75.2913 104.716 75.3415C104.553 75.3917 104.381 75.4094 104.211 75.3935C104.041 75.3777 103.876 75.3286 103.725 75.2491C103.574 75.1696 103.441 75.0612 103.332 74.9302C103.223 74.7992 103.141 74.648 103.09 74.4854C103.04 74.3228 103.022 74.1519 103.038 73.9824C103.054 73.813 103.103 73.6483 103.183 73.4978C103.263 73.3474 103.372 73.214 103.503 73.1054L125.02 55.3255C125.152 55.2169 125.303 55.1352 125.467 55.085C125.63 55.0348 125.801 55.0171 125.971 55.033C126.141 55.0488 126.306 55.0979 126.457 55.1774C126.608 55.2569 126.742 55.3653 126.851 55.4963C126.96 55.6273 127.042 55.7785 127.092 55.9411C127.142 56.1037 127.16 56.2746 127.144 56.4441C127.128 56.6135 127.079 56.7782 126.999 56.9287C126.92 57.0791 126.811 57.2125 126.679 57.3211Z" fill="#CCCCCC"/>
<path d="M116.148 58.8694L101.637 70.8605C101.371 71.0799 101.029 71.1851 100.686 71.1531C100.343 71.121 100.026 70.9544 99.8063 70.6897C99.5863 70.4251 99.4808 70.0842 99.5129 69.742C99.5451 69.3998 99.7122 69.0843 99.9777 68.865L114.489 56.8738C114.755 56.6545 115.097 56.5493 115.44 56.5813C115.783 56.6134 116.1 56.78 116.32 57.0447C116.54 57.3093 116.645 57.6502 116.613 57.9924C116.581 58.3346 116.414 58.6501 116.148 58.8694Z" fill="#CCCCCC"/>
<path d="M93.6625 83.3929C95.9059 83.3929 97.7246 81.5797 97.7246 79.343C97.7246 77.1064 95.9059 75.2932 93.6625 75.2932C91.4191 75.2932 89.6004 77.1064 89.6004 79.343C89.6004 81.5797 91.4191 83.3929 93.6625 83.3929Z" fill="#1A237E"/>
<path d="M125.975 71.2252C126.693 71.2252 127.275 70.645 127.275 69.9292C127.275 69.2135 126.693 68.6333 125.975 68.6333C125.257 68.6333 124.675 69.2135 124.675 69.9292C124.675 70.645 125.257 71.2252 125.975 71.2252Z" fill="#E6E6E6"/>
<path d="M129.478 68.3309C130.195 68.3309 130.777 67.7507 130.777 67.035C130.777 66.3192 130.195 65.739 129.478 65.739C128.76 65.739 128.178 66.3192 128.178 67.035C128.178 67.7507 128.76 68.3309 129.478 68.3309Z" fill="#E6E6E6"/>
<path d="M132.98 65.4364C133.698 65.4364 134.28 64.8562 134.28 64.1404C134.28 63.4247 133.698 62.8445 132.98 62.8445C132.262 62.8445 131.681 63.4247 131.681 64.1404C131.681 64.8562 132.262 65.4364 132.98 65.4364Z" fill="#E6E6E6"/>
<path d="M112.262 134.981L115.246 134.981L116.666 123.505L112.262 123.506L112.262 134.981Z" fill="#FFB8B8"/>
<path d="M111.501 134.01L117.378 134.01H117.378C117.87 134.01 118.357 134.106 118.811 134.294C119.266 134.482 119.679 134.757 120.026 135.103C120.374 135.45 120.65 135.862 120.838 136.315C121.027 136.768 121.123 137.253 121.123 137.744V137.865L111.501 137.865L111.501 134.01Z" fill="#2F2E41"/>
<path d="M101.552 134.981L104.536 134.981L105.956 123.505L101.551 123.506L101.552 134.981Z" fill="#FFB8B8"/>
<path d="M100.791 134.01L106.668 134.01H106.668C107.16 134.01 107.647 134.106 108.101 134.294C108.556 134.482 108.968 134.757 109.316 135.103C109.664 135.45 109.94 135.862 110.128 136.315C110.316 136.768 110.413 137.253 110.413 137.744V137.865L100.791 137.865L100.791 134.01Z" fill="#2F2E41"/>
<path d="M104.547 131.47H104.546L102.008 131.469C101.724 131.47 101.451 131.361 101.247 131.164C101.043 130.968 100.923 130.699 100.914 130.417L100.834 128.203C100.193 110.502 99.5294 92.1982 103.638 83.9713L103.67 83.9066L117.272 83.4158L120.003 108.39C120.119 109.455 120.077 110.532 119.876 111.585L116.266 130.55C116.217 130.807 116.078 131.038 115.872 131.201C115.667 131.364 115.41 131.448 115.147 131.438L112.297 131.345C112.147 131.339 112.001 131.303 111.866 131.239C111.732 131.174 111.612 131.083 111.513 130.971C111.415 130.859 111.341 130.727 111.296 130.585C111.251 130.444 111.235 130.294 111.25 130.146L113.489 112.605C113.565 111.848 113.496 111.083 113.286 110.352L110.501 100.646C110.478 100.566 110.428 100.496 110.359 100.448C110.291 100.4 110.208 100.377 110.124 100.383C110.041 100.389 109.962 100.423 109.9 100.48C109.839 100.537 109.8 100.614 109.788 100.696L105.631 130.528C105.594 130.789 105.464 131.027 105.265 131.2C105.066 131.373 104.811 131.469 104.547 131.47Z" fill="#2F2E41"/>
<path d="M106.173 58.4471C109.475 58.4471 112.152 55.7786 112.152 52.4867C112.152 49.1948 109.475 46.5262 106.173 46.5262C102.871 46.5262 100.195 49.1948 100.195 52.4867C100.195 55.7786 102.871 58.4471 106.173 58.4471Z" fill="#FFB8B8"/>
<path d="M116.634 85.2594H104.263C104.106 85.2594 103.951 85.2257 103.808 85.1605C103.665 85.0953 103.538 85.0002 103.435 84.8816C103.332 84.763 103.256 84.6238 103.212 84.4733C103.168 84.3228 103.157 84.1646 103.179 84.0095L103.791 79.8363L100.202 69.9948C99.8312 68.9788 99.6935 67.893 99.7988 66.8171C99.904 65.7411 100.25 64.7023 100.81 63.7769C101.37 62.8514 102.132 62.0628 103.038 61.4688C103.944 60.8748 104.971 60.4906 106.046 60.3443C107.576 60.1315 109.135 60.4128 110.494 61.1471C111.853 61.8814 112.94 63.0301 113.597 64.4251L114.385 66.0973L117.711 83.9683C117.741 84.1259 117.735 84.288 117.694 84.4431C117.654 84.5982 117.579 84.7424 117.477 84.8657C117.374 84.9889 117.245 85.0881 117.1 85.1561C116.954 85.2242 116.795 85.2594 116.634 85.2594Z" fill="#1A237E"/>
<path d="M90.5193 95.7277C90.8917 95.6415 91.2406 95.4749 91.5414 95.2397C91.8422 95.0045 92.0877 94.7065 92.2604 94.3665C92.4332 94.0265 92.5291 93.6529 92.5414 93.2719C92.5536 92.891 92.482 92.512 92.3315 92.1617L101.971 70.4487L96.4568 69.064L88.7152 90.8425C88.1416 91.1337 87.6951 91.6245 87.4602 92.2219C87.2254 92.8193 87.2185 93.4819 87.4409 94.084C87.6632 94.6862 88.0994 95.1861 88.6668 95.489C89.2342 95.792 89.8934 95.8769 90.5193 95.7277Z" fill="#FFB8B8"/>
<path d="M100.666 74.3317L95.303 71.8289C95.1504 71.7576 95.015 71.6545 94.906 71.5264C94.797 71.3983 94.717 71.2483 94.6714 71.0866C94.6258 70.9249 94.6157 70.7552 94.6417 70.5893C94.6678 70.4233 94.7295 70.2649 94.8225 70.1249L98.0819 65.2172C98.4521 64.4414 99.1157 63.8435 99.9272 63.5546C100.739 63.2657 101.632 63.3092 102.411 63.6757C103.191 64.0422 103.793 64.7018 104.085 65.5099C104.378 66.318 104.337 67.2088 103.972 67.987L102.287 73.6082C102.238 73.7691 102.156 73.9178 102.045 74.044C101.934 74.1703 101.796 74.2712 101.643 74.3399C101.489 74.4085 101.322 74.4433 101.154 74.4419C100.985 74.4405 100.819 74.403 100.666 74.3317Z" fill="#1A237E"/>
<path d="M130.732 39.8536C130.848 40.2167 130.883 40.6007 130.835 40.9788C130.786 41.3568 130.655 41.7196 130.451 42.0417C130.246 42.3637 129.973 42.6372 129.651 42.8428C129.33 43.0484 128.966 43.1811 128.587 43.2316L114.818 62.6058L110.801 58.5927L125.599 40.8104C125.556 40.1702 125.75 39.5365 126.145 39.0294C126.539 38.5223 127.106 38.1771 127.739 38.0592C128.372 37.9412 129.026 38.0588 129.577 38.3895C130.129 38.7202 130.54 39.2412 130.732 39.8536Z" fill="#FFB8B8"/>
<path d="M118.002 60.3316C118.022 60.4984 118.005 60.6675 117.953 60.8274C117.901 60.9872 117.815 61.134 117.701 61.2577L113.722 65.5796C113.238 66.2913 112.492 66.7829 111.646 66.9465C110.799 67.1102 109.922 66.9326 109.207 66.4527C108.492 65.9728 107.997 65.2297 107.83 64.3864C107.664 63.5431 107.84 62.6684 108.319 61.9541L110.878 56.6498C110.951 56.4984 111.056 56.3645 111.186 56.2572C111.315 56.1499 111.467 56.0717 111.629 56.0279C111.792 55.9842 111.962 55.9759 112.128 56.0036C112.294 56.0313 112.453 56.0945 112.592 56.1887L117.495 59.4996C117.635 59.5938 117.752 59.7168 117.84 59.8604C117.927 60.004 117.982 60.1647 118.002 60.3316Z" fill="#1A237E"/>
<path d="M114.029 49.9918C114.025 49.4524 113.95 48.9158 113.805 48.3959C112.842 44.8474 109.286 42.7176 105.718 43.2521C105.024 43.0537 104.305 42.9534 103.583 42.9541C101.747 42.9541 99.9704 43.6089 98.5757 44.8001C97.1809 45.9913 96.2593 47.6405 95.9774 49.4499L93.0949 67.95H108.673L111.189 51.8057C111.282 51.2057 111.304 50.5969 111.254 49.9918H114.029Z" fill="#2F2E41"/>
<path d="M133.391 138H82.0306C81.966 138 81.9041 137.974 81.8584 137.929C81.8128 137.883 81.7871 137.822 81.7871 137.757C81.7871 137.693 81.8128 137.631 81.8584 137.586C81.9041 137.54 81.966 137.515 82.0306 137.515H133.391C133.455 137.515 133.517 137.54 133.563 137.586C133.609 137.631 133.634 137.693 133.634 137.757C133.634 137.822 133.609 137.883 133.563 137.929C133.517 137.974 133.455 138 133.391 138Z" fill="#CCCCCC"/>
<path d="M185.134 18.8483C185.49 18.8141 185.849 18.8582 186.186 18.9775C186.524 19.0967 186.831 19.2883 187.085 19.5386C187.34 19.7889 187.537 20.092 187.662 20.4263C187.787 20.7607 187.837 21.1183 187.808 21.4739L195.769 24.9672L191.971 27.4112L184.993 23.7192C184.397 23.6313 183.854 23.3285 183.467 22.8682C183.08 22.4079 182.876 21.8221 182.893 21.2217C182.911 20.6213 183.148 20.048 183.561 19.6106C183.974 19.1732 184.533 18.9019 185.134 18.8483Z" fill="#A0616A"/>
<path d="M217.248 14.4905C220.549 14.4905 223.226 11.8219 223.226 8.53002C223.226 5.23816 220.549 2.56958 217.248 2.56958C213.946 2.56958 211.269 5.23816 211.269 8.53002C211.269 11.8219 213.946 14.4905 217.248 14.4905Z" fill="#A0616A"/>
<path d="M206.427 93.5197L203.443 93.5195L202.023 82.0437L206.428 82.0439L206.427 93.5197Z" fill="#A0616A"/>
<path d="M207.188 96.4037L197.566 96.4033V96.282C197.566 95.7917 197.663 95.3061 197.851 94.8531C198.039 94.4001 198.315 93.9884 198.663 93.6417C199.011 93.295 199.424 93.0199 199.878 92.8323C200.333 92.6447 200.82 92.5481 201.311 92.5481L207.189 92.5483L207.188 96.4037Z" fill="#2F2E41"/>
<path d="M218.841 93.5197L215.857 93.5195L214.438 82.0437L218.842 82.0439L218.841 93.5197Z" fill="#A0616A"/>
<path d="M219.602 96.4037L209.98 96.4033V96.282C209.98 95.7917 210.077 95.3061 210.265 94.8531C210.454 94.4001 210.729 93.9884 211.077 93.6417C211.425 93.295 211.838 93.0199 212.292 92.8323C212.747 92.6447 213.234 92.5481 213.726 92.5481L219.603 92.5483L219.602 96.4037Z" fill="#2F2E41"/>
<path d="M218.7 91.0755C218.655 91.0754 218.611 91.0727 218.566 91.0672L214.198 90.5311C213.942 90.5001 213.706 90.3799 213.53 90.1919C213.354 90.0038 213.251 89.7599 213.238 89.5033L211.965 60.9245C211.961 60.8434 211.929 60.7661 211.876 60.7049C211.822 60.6436 211.75 60.602 211.67 60.5865C211.59 60.5711 211.507 60.5827 211.435 60.6196C211.362 60.6565 211.304 60.7165 211.27 60.7902L207.999 71.6583L207.326 89.1158C207.32 89.2663 207.283 89.414 207.217 89.5496C207.152 89.6852 207.058 89.8058 206.944 89.9037C206.829 90.0016 206.695 90.0747 206.55 90.1185C206.406 90.1623 206.254 90.1758 206.103 90.1581L202.321 89.7142C202.05 89.6833 201.801 89.5527 201.622 89.3482C201.443 89.1436 201.347 88.8798 201.354 88.6084L201.675 72.1757L204.238 46.3809L204.352 46.3851L219.936 46.984L219.796 89.987C219.795 90.276 219.679 90.5528 219.473 90.7568C219.268 90.9609 218.99 91.0754 218.7 91.0755Z" fill="#2F2E41"/>
<path d="M219.345 49.3411C219.336 49.3411 219.326 49.3411 219.317 49.3409L203.622 48.9309C203.468 48.9269 203.317 48.8906 203.178 48.8244C203.039 48.7582 202.916 48.6636 202.816 48.5467C202.716 48.4298 202.642 48.2933 202.599 48.1461C202.556 47.9988 202.544 47.8442 202.565 47.6921L205.581 25.5619C205.769 24.0676 206.272 22.6298 207.055 21.3421C207.839 20.0545 208.886 18.9462 210.128 18.0893C211.221 17.3393 212.462 16.8312 213.768 16.599C215.074 16.3668 216.415 16.416 217.7 16.7432C223.178 18.1273 226.465 23.9921 225.026 29.8168L220.409 48.5102C220.35 48.7468 220.213 48.9569 220.02 49.1074C219.827 49.2578 219.59 49.34 219.345 49.3411Z" fill="#3F3D56"/>
<path d="M198.755 31.7677C197.721 31.769 196.708 31.4692 195.843 30.9051L186.69 24.9182C186.556 24.8306 186.443 24.7147 186.359 24.5788C186.274 24.4429 186.221 24.2902 186.203 24.1315C186.184 23.9729 186.201 23.8121 186.251 23.6605C186.302 23.5089 186.385 23.3703 186.495 23.2543L187.874 21.803C188.024 21.6439 188.219 21.5336 188.434 21.4866C188.648 21.4395 188.871 21.4578 189.075 21.5392L199.298 25.5981L208.769 18.855C209.212 18.5397 209.716 18.3195 210.248 18.2083C210.781 18.0971 211.331 18.0974 211.864 18.209C212.396 18.3207 212.9 18.5413 213.342 18.857C213.785 19.1726 214.157 19.5764 214.435 20.0429C214.713 20.5093 214.891 21.0281 214.957 21.5666C215.024 22.1051 214.977 22.6514 214.821 23.1711C214.665 23.6908 214.402 24.1725 214.049 24.5858C213.697 24.999 213.262 25.3348 212.773 25.5718L201.067 31.2402C200.346 31.5882 199.556 31.7686 198.755 31.7677Z" fill="#3F3D56"/>
<path d="M219.319 14.2301C220.339 14.4703 221.57 14.6545 222.299 13.9038C222.428 13.7621 222.543 13.6085 222.643 13.4451L223.596 11.9945C224.326 10.8833 225.069 9.7431 225.378 8.45095C225.556 7.70847 225.583 6.93821 225.46 6.18492C225.336 5.43164 225.064 4.71033 224.658 4.06292C224.253 3.4155 223.722 2.85489 223.098 2.41362C222.473 1.97236 221.766 1.65924 221.019 1.49247C219.596 1.17485 218.204 0.628349 216.749 0.728037C215.295 0.827724 213.589 0.794997 212.368 0C212.444 0.354423 212.855 1.92042 212.855 1.92042C212.855 1.92042 211.02 3.59943 210.651 4.01809C211.133 3.8051 211.658 3.70509 212.185 3.72576C212.711 3.74642 213.226 3.88721 213.69 4.1373C214.153 4.38739 214.553 4.74013 214.859 5.1684C215.164 5.59667 215.367 6.08907 215.452 6.60777C215.556 7.24501 215.495 7.95172 215.875 8.47474C216.236 8.97218 216.884 9.14648 217.428 9.43369C218.213 9.87947 218.813 10.5902 219.118 11.4376C219.424 12.2851 219.416 13.2135 219.095 14.0555L219.319 14.2301Z" fill="#2F2E41"/>
<path d="M212.141 51.4757H162.584C161.962 51.475 161.364 51.228 160.924 50.7889C160.483 50.3497 160.236 49.7542 160.235 49.1332V24.0038C160.236 23.3828 160.483 22.7873 160.924 22.3482C161.364 21.909 161.962 21.662 162.584 21.6613H212.141C212.764 21.662 213.361 21.909 213.802 22.3482C214.242 22.7873 214.49 23.3828 214.491 24.0038V49.1332C214.49 49.7543 214.242 50.3497 213.802 50.7889C213.361 51.228 212.764 51.475 212.141 51.4757Z" fill="#CCCCCC"/>
<path d="M211.571 49.7721H163.154C162.833 49.7717 162.526 49.6445 162.299 49.4183C162.072 49.192 161.944 48.8853 161.944 48.5653V24.5718C161.944 24.2518 162.072 23.9451 162.299 23.7188C162.526 23.4926 162.833 23.3653 163.154 23.365H211.571C211.892 23.3653 212.2 23.4926 212.427 23.7188C212.654 23.9451 212.782 24.2518 212.782 24.5718V48.5653C212.782 48.8853 212.654 49.192 212.427 49.4183C212.2 49.6445 211.892 49.7717 211.571 49.7721Z" fill="white"/>
<path d="M208.767 55.8299L203.322 50.4011L210.303 50.5771V55.1957C210.305 55.3735 210.253 55.5477 210.154 55.6956C210.055 55.8434 209.913 55.958 209.748 56.0243C209.637 56.0706 209.518 56.0946 209.398 56.0949C209.28 56.0945 209.164 56.0709 209.056 56.0254C208.948 55.9799 208.85 55.9135 208.767 55.8299Z" fill="#CCCCCC"/>
<path d="M205.676 35.4925H181.183C180.881 35.4925 180.591 35.3729 180.377 35.1599C180.164 34.9469 180.044 34.658 180.044 34.3567C180.044 34.0555 180.164 33.7666 180.377 33.5536C180.591 33.3406 180.881 33.2209 181.183 33.2209H205.676C205.978 33.2209 206.268 33.3406 206.482 33.5536C206.696 33.7666 206.816 34.0555 206.816 34.3567C206.816 34.658 206.696 34.9469 206.482 35.1599C206.268 35.3729 205.978 35.4925 205.676 35.4925Z" fill="#CCCCCC"/>
<path d="M197.702 30.6655H181.183C181.033 30.6657 180.885 30.6365 180.746 30.5795C180.608 30.5225 180.482 30.4389 180.376 30.3334C180.27 30.2279 180.186 30.1027 180.129 29.9647C180.071 29.8268 180.042 29.679 180.042 29.5297C180.042 29.3804 180.071 29.2326 180.129 29.0947C180.186 28.9568 180.27 28.8315 180.376 28.726C180.482 28.6205 180.608 28.5369 180.746 28.4799C180.885 28.4229 181.033 28.3937 181.183 28.3939H197.702C198.004 28.3939 198.294 28.5136 198.507 28.7266C198.721 28.9396 198.841 29.2285 198.841 29.5297C198.841 29.8309 198.721 30.1198 198.507 30.3328C198.294 30.5458 198.004 30.6655 197.702 30.6655Z" fill="#CCCCCC"/>
<path d="M171.044 35.4926C173.01 35.4926 174.604 33.9035 174.604 31.9433C174.604 29.983 173.01 28.3939 171.044 28.3939C169.077 28.3939 167.484 29.983 167.484 31.9433C167.484 33.9035 169.077 35.4926 171.044 35.4926Z" fill="#1A237E"/>
<path d="M198.128 44.7433C198.757 44.7433 199.267 44.2347 199.267 43.6075C199.267 42.9802 198.757 42.4717 198.128 42.4717C197.499 42.4717 196.989 42.9802 196.989 43.6075C196.989 44.2347 197.499 44.7433 198.128 44.7433Z" fill="#E6E6E6"/>
<path d="M202.115 44.7433C202.745 44.7433 203.255 44.2347 203.255 43.6075C203.255 42.9802 202.745 42.4717 202.115 42.4717C201.486 42.4717 200.976 42.9802 200.976 43.6075C200.976 44.2347 201.486 44.7433 202.115 44.7433Z" fill="#E6E6E6"/>
<path d="M206.103 44.7433C206.732 44.7433 207.242 44.2347 207.242 43.6075C207.242 42.9802 206.732 42.4717 206.103 42.4717C205.474 42.4717 204.964 42.9802 204.964 43.6075C204.964 44.2347 205.474 44.7433 206.103 44.7433Z" fill="#E6E6E6"/>
<path d="M211.374 48.4873C211.413 48.1327 211.53 47.791 211.716 47.4863C211.902 47.1816 212.153 46.9213 212.451 46.7237C212.749 46.5261 213.087 46.3961 213.44 46.3427C213.794 46.2894 214.156 46.314 214.499 46.4149L219.558 39.3604L221.18 43.5666L216.127 49.6208C215.919 50.1844 215.511 50.6523 214.98 50.9358C214.448 51.2194 213.831 51.2988 213.245 51.1591C212.66 51.0194 212.145 50.6702 211.8 50.1778C211.455 49.6854 211.304 49.0839 211.374 48.4873Z" fill="#A0616A"/>
<path d="M217.169 48.1066C217.089 48.1133 217.009 48.1112 216.93 48.1006C216.771 48.0795 216.619 48.0237 216.484 47.9373C216.349 47.8509 216.235 47.736 216.15 47.6007L215.081 45.9097C214.963 45.725 214.904 45.5094 214.911 45.2908C214.919 45.0723 214.992 44.861 215.122 44.6846L221.597 35.8138L217.388 24.9962C217.012 24.0444 217.026 22.9834 217.428 22.042C217.829 21.1005 218.585 20.3539 219.533 19.9632C220.069 19.7391 220.648 19.6363 221.229 19.6619C221.809 19.6876 222.376 19.8412 222.89 20.1117C223.404 20.3822 223.851 20.7628 224.2 21.2262C224.549 21.6896 224.79 22.2243 224.906 22.7918L227.518 35.5017C227.699 36.398 227.646 37.3259 227.362 38.1956C227.078 39.0652 226.574 39.8471 225.899 40.4655L217.815 47.8249C217.637 47.9875 217.409 48.0866 217.169 48.1066Z" fill="#3F3D56"/>
<path d="M230.757 96.9873H179.396C179.332 96.9873 179.27 96.9617 179.224 96.9162C179.178 96.8707 179.153 96.809 179.153 96.7446C179.153 96.6803 179.178 96.6185 179.224 96.573C179.27 96.5275 179.332 96.502 179.396 96.502H230.757C230.821 96.502 230.883 96.5275 230.929 96.573C230.974 96.6185 231 96.6803 231 96.7446C231 96.809 230.974 96.8707 230.929 96.9162C230.883 96.9617 230.821 96.9873 230.757 96.9873Z" fill="#CCCCCC"/>
<path d="M62.4643 36.5903H12.9078C12.2848 36.5896 11.6876 36.3425 11.2471 35.9034C10.8066 35.4642 10.5588 34.8687 10.5581 34.2477V9.11834C10.5588 8.49726 10.8066 7.90182 11.2471 7.46265C11.6876 7.02349 12.2848 6.77646 12.9078 6.77576H62.4643C63.0873 6.77646 63.6845 7.02349 64.125 7.46266C64.5655 7.90182 64.8133 8.49726 64.814 9.11834V34.2477C64.8133 34.8688 64.5655 35.4642 64.125 35.9034C63.6845 36.3425 63.0873 36.5896 62.4643 36.5903Z" fill="#CCCCCC"/>
<path d="M61.8947 34.8865H13.4774C13.1565 34.8861 12.8488 34.7589 12.6219 34.5326C12.395 34.3064 12.2673 33.9997 12.267 33.6797V9.68615C12.2673 9.3662 12.395 9.05946 12.6219 8.83322C12.8488 8.60698 13.1565 8.47973 13.4774 8.47937H61.8947C62.2156 8.47973 62.5233 8.60698 62.7502 8.83322C62.9772 9.05946 63.1048 9.3662 63.1052 9.68615V33.6797C63.1048 33.9997 62.9772 34.3064 62.7502 34.5326C62.5233 34.7589 62.2156 34.8861 61.8947 34.8865Z" fill="white"/>
<path d="M59.0908 40.9444L53.6455 35.5156L60.6266 35.6916V40.3102C60.6285 40.488 60.5765 40.6622 60.4774 40.8101C60.3783 40.9579 60.2367 41.0725 60.0712 41.1388C59.9603 41.1851 59.8414 41.2091 59.7212 41.2094C59.6038 41.209 59.4876 41.1854 59.3793 41.1399C59.2711 41.0944 59.173 41.028 59.0908 40.9444Z" fill="#CCCCCC"/>
<path d="M55.9996 20.607H31.5061C31.204 20.607 30.9142 20.4874 30.7006 20.2744C30.4869 20.0614 30.3669 19.7725 30.3669 19.4712C30.3669 19.17 30.4869 18.8811 30.7006 18.6681C30.9142 18.4551 31.204 18.3354 31.5061 18.3354H55.9996C56.3018 18.3354 56.5915 18.4551 56.8052 18.6681C57.0188 18.8811 57.1388 19.17 57.1388 19.4712C57.1388 19.7725 57.0188 20.0614 56.8052 20.2744C56.5915 20.4874 56.3018 20.607 55.9996 20.607Z" fill="#CCCCCC"/>
<path d="M48.025 15.7799H31.5061C31.204 15.7799 30.9142 15.6602 30.7006 15.4472C30.4869 15.2342 30.3669 14.9453 30.3669 14.6441C30.3669 14.3429 30.4869 14.054 30.7006 13.841C30.9142 13.628 31.204 13.5083 31.5061 13.5083H48.025C48.3271 13.5083 48.6169 13.628 48.8306 13.841C49.0442 14.054 49.1642 14.3429 49.1642 14.6441C49.1642 14.9453 49.0442 15.2342 48.8306 15.4472C48.6169 15.6602 48.3271 15.7799 48.025 15.7799Z" fill="#CCCCCC"/>
<path d="M21.3669 20.607C23.3331 20.607 24.927 19.0179 24.927 17.0576C24.927 15.0974 23.3331 13.5083 21.3669 13.5083C19.4007 13.5083 17.8068 15.0974 17.8068 17.0576C17.8068 19.0179 19.4007 20.607 21.3669 20.607Z" fill="#1A237E"/>
<path d="M48.4515 29.8576C49.0806 29.8576 49.5907 29.3491 49.5907 28.7218C49.5907 28.0946 49.0806 27.5861 48.4515 27.5861C47.8223 27.5861 47.3122 28.0946 47.3122 28.7218C47.3122 29.3491 47.8223 29.8576 48.4515 29.8576Z" fill="#E6E6E6"/>
<path d="M52.4388 29.8576C53.0679 29.8576 53.578 29.3491 53.578 28.7218C53.578 28.0946 53.0679 27.5861 52.4388 27.5861C51.8096 27.5861 51.2995 28.0946 51.2995 28.7218C51.2995 29.3491 51.8096 29.8576 52.4388 29.8576Z" fill="#E6E6E6"/>
<path d="M56.4261 29.8576C57.0552 29.8576 57.5653 29.3491 57.5653 28.7218C57.5653 28.0946 57.0552 27.5861 56.4261 27.5861C55.7969 27.5861 55.2868 28.0946 55.2868 28.7218C55.2868 29.3491 55.7969 29.8576 56.4261 29.8576Z" fill="#E6E6E6"/>
<path d="M60.4092 4.36127C60.0725 4.48211 59.7665 4.67508 59.5127 4.92658C59.2589 5.17809 59.0635 5.48202 58.9403 5.81696C58.817 6.15189 58.7689 6.5097 58.7994 6.86516C58.8299 7.22062 58.9382 7.5651 59.1166 7.87433L53.4158 14.4243L57.8968 15.0161L62.6234 8.70544C63.1246 8.37212 63.4857 7.86708 63.6384 7.28604C63.791 6.705 63.7246 6.08832 63.4516 5.55284C63.1787 5.01737 62.7182 4.60032 62.1575 4.3807C61.5968 4.16109 60.9747 4.15417 60.4092 4.36127Z" fill="#FFB8B8"/>
<path d="M22.345 6.98353C22.4665 7.31906 22.5129 7.67709 22.4807 8.0324C22.4485 8.38771 22.3385 8.73166 22.1585 9.04002C21.9786 9.34839 21.733 9.61366 21.4391 9.81716C21.1452 10.0207 20.8101 10.1574 20.4574 10.2179L19.0388 18.7738L15.7216 15.7126L17.5774 8.05698C17.5148 7.45957 17.6743 6.86005 18.0255 6.37202C18.3767 5.88399 18.8952 5.54135 19.4829 5.40903C20.0706 5.27672 20.6865 5.36391 21.214 5.6541C21.7415 5.94429 22.1439 6.41732 22.345 6.98353Z" fill="#FFB8B8"/>
<path d="M31.2541 93.5197L34.2384 93.5195L35.658 82.0437L31.2536 82.0439L31.2541 93.5197Z" fill="#FFB8B8"/>
<path d="M30.4929 92.5483L36.3698 92.5481H36.3701C36.8619 92.5481 37.3489 92.6447 37.8033 92.8323C38.2577 93.0199 38.6706 93.295 39.0184 93.6417C39.3662 93.9884 39.6421 94.4001 39.8303 94.8531C40.0185 95.3061 40.1154 95.7917 40.1154 96.282V96.4033L30.4931 96.4037L30.4929 92.5483Z" fill="#2F2E41"/>
<path d="M15.919 93.5197L18.9033 93.5195L20.3229 82.0437L15.9185 82.0439L15.919 93.5197Z" fill="#FFB8B8"/>
<path d="M15.1578 92.5483L21.0347 92.5481H21.035C21.5268 92.5481 22.0139 92.6447 22.4683 92.8323C22.9227 93.0199 23.3355 93.295 23.6833 93.6417C24.0311 93.9884 24.307 94.4001 24.4952 94.8531C24.6834 95.3061 24.7803 95.7917 24.7803 96.282V96.4033L15.158 96.4037L15.1578 92.5483Z" fill="#2F2E41"/>
<path d="M30.6311 15.1694C33.933 15.1694 36.6097 12.5008 36.6097 9.20898C36.6097 5.91712 33.933 3.24854 30.6311 3.24854C27.3293 3.24854 24.6526 5.91712 24.6526 9.20898C24.6526 12.5008 27.3293 15.1694 30.6311 15.1694Z" fill="#FFB8B8"/>
<path d="M29.9145 89.7074L29.4202 58.3032C29.419 58.2145 29.3852 58.1292 29.3253 58.0635C29.2654 57.9978 29.1835 57.9562 29.0949 57.9466C29.0064 57.9369 28.9174 57.9598 28.8446 58.011C28.7719 58.0622 28.7204 58.1382 28.6999 58.2245L20.5964 88.9419C20.5354 89.1877 20.3917 89.4052 20.1891 89.558C19.9866 89.7108 19.7376 89.7896 19.4838 89.7813L15.0317 89.5915C14.8804 89.585 14.732 89.5473 14.596 89.4807C14.46 89.4142 14.3394 89.3202 14.2416 89.2048C14.1439 89.0894 14.0713 88.955 14.0283 88.8102C13.9853 88.6654 13.9729 88.5133 13.9918 88.3634L20.868 48.8897L20.8821 48.7783L40.0344 49.6817L40.1593 49.6874L36.0524 89.773C36.0308 90.0475 35.9065 90.3038 35.7042 90.4911C35.5018 90.6784 35.2362 90.7829 34.9601 90.784H31.0098C30.7223 90.7829 30.4467 90.6696 30.242 90.4683C30.0373 90.2671 29.9197 89.994 29.9145 89.7074Z" fill="#2F2E41"/>
<path d="M45.0414 52.342L17.249 50.068C17.0812 50.0543 16.9189 50.0023 16.7746 49.9159C16.6303 49.8295 16.5079 49.7111 16.417 49.5699C16.326 49.4287 16.2689 49.2685 16.2501 49.1018C16.2313 48.935 16.2513 48.7662 16.3085 48.6084L20.6853 36.5444L20.9371 22.2256C20.9463 21.7058 21.0588 21.193 21.2683 20.7169C21.4778 20.2409 21.78 19.811 22.1574 19.4523C22.5348 19.0935 22.9799 18.8131 23.4668 18.6272C23.9538 18.4413 24.4729 18.3536 24.9941 18.3693L26.8424 16.699H33.6141L34.2037 17.4697L38.9155 18.1915C39.7548 18.3236 40.5292 18.7213 41.1244 19.3257C41.7196 19.9302 42.1041 20.7095 42.2211 21.5485L46.2166 51.1079C46.2374 51.2621 46.2249 51.419 46.1799 51.568C46.135 51.717 46.0587 51.8547 45.956 51.9719C45.8534 52.0891 45.7268 52.1831 45.5847 52.2476C45.4427 52.3121 45.2885 52.3455 45.1324 52.3457C45.1022 52.3457 45.0719 52.3446 45.0414 52.342Z" fill="#2F2E41"/>
<path d="M39.6264 19.5795L51.4767 16.118L56.8398 9.07845C56.9874 8.88456 57.1958 8.74542 57.4319 8.68316C57.6679 8.6209 57.9181 8.63908 58.1426 8.73482L61.4911 10.1617C61.6338 10.2226 61.762 10.313 61.867 10.4269C61.9721 10.5409 62.0517 10.6758 62.1004 10.8228C62.1492 10.9697 62.1661 11.1253 62.15 11.2793C62.1338 11.4332 62.0851 11.582 62.0069 11.7157L57.9989 18.5728C57.3463 19.6945 56.3529 20.5803 55.1622 21.1022L41.2241 27.245L39.6264 19.5795Z" fill="#2F2E41"/>
<path d="M16.8912 24.7575C16.183 24.2489 15.6183 23.5669 15.2514 22.7773C14.8846 21.9877 14.7281 21.1172 14.7969 20.2497L15.317 13.3801C15.3384 13.1057 15.4627 12.8494 15.6652 12.6623C15.8676 12.4751 16.1333 12.3709 16.4093 12.3702H16.419L20.3457 12.4051C20.5066 12.4065 20.6651 12.4433 20.8101 12.5128C20.9551 12.5822 21.083 12.6827 21.1847 12.8069C21.2864 12.9312 21.3594 13.0763 21.3985 13.2319C21.4375 13.3875 21.4418 13.5497 21.4109 13.7071L20.6823 17.4132L25.8817 19.6034L21.5034 28.0955L16.8912 24.7575Z" fill="#2F2E41"/>
<path d="M34.1091 2.06179C34.1091 2.06179 27.857 -1.29451 24.4492 2.66665C21.0414 6.6278 25.7475 12.8222 25.7475 12.8222L32.4531 13.6653C32.4531 13.6653 32.6965 9.12081 34.2931 9.20904C35.8896 9.29727 40.848 3.56276 34.1091 2.06179Z" fill="#2F2E41"/>
<path d="M51.6038 96.7446H0.243414C0.178857 96.7446 0.116943 96.7191 0.0712942 96.6736C0.0256452 96.628 0 96.5663 0 96.502C0 96.4376 0.0256452 96.3759 0.0712942 96.3304C0.116943 96.2848 0.178857 96.2593 0.243414 96.2593H51.6038C51.6684 96.2593 51.7303 96.2848 51.7759 96.3304C51.8216 96.3759 51.8472 96.4376 51.8472 96.502C51.8472 96.5663 51.8216 96.628 51.7759 96.6736C51.7303 96.7191 51.6684 96.7446 51.6038 96.7446Z" fill="#CCCCCC"/>
</g>
<defs>
<clipPath id="clip0_18_91">
<rect width="231" height="138" fill="white"/>
</clipPath>
</defs>
</svg>
