<svg width="211" height="160" viewBox="0 0 211 160" fill="none" xmlns="http://www.w3.org/2000/svg">
<g clip-path="url(#clip0_18_274)">
<path d="M195.224 145.431C188.311 150.685 179.888 156.008 171.608 158.517C169.221 159.262 166.757 159.738 164.264 159.935C161.933 160.122 159.587 159.94 157.313 159.397C151.336 157.913 145.793 155.315 140.43 152.28C138.677 151.287 136.945 150.248 135.223 149.187C132.412 147.453 129.629 145.659 126.839 143.907C126.421 143.642 126.005 143.382 125.588 143.124H125.585C124.911 142.702 124.236 142.286 123.559 141.876C123.44 141.802 123.321 141.731 123.2 141.658C121.921 140.885 120.62 140.129 119.297 139.391C119.135 139.303 118.973 139.212 118.811 139.123C116.252 137.707 113.621 136.422 110.93 135.274C109.163 134.531 107.372 133.862 105.564 133.291H105.562C104.87 133.073 104.177 132.869 103.48 132.682C101.392 132.11 99.264 131.694 97.1139 131.438C94.1511 131.08 91.1544 131.104 88.1976 131.509C87.9975 131.537 87.8 131.565 87.5999 131.597C79.5978 132.876 72.2945 137.188 64.2569 138.204C63.996 138.236 63.7377 138.267 63.4769 138.289C63.3655 138.3 63.254 138.312 63.1426 138.32C60.8069 138.519 58.4562 138.462 56.1331 138.148C49.6427 137.294 43.322 134.643 37.6319 131.302C24.3295 123.49 13.5417 111.483 6.98297 97.5787C5.85669 95.1957 4.85673 92.7552 3.98723 90.2674C1.55616 83.3688 0.217366 76.1342 0.019042 68.8241C-0.596316 43.4611 13.8456 18.0146 36.5202 6.54362C59.1972 -4.92737 89.0282 -1.13404 107.317 16.4882C118.411 27.1783 124.83 41.6642 133.179 54.606C141.529 67.5453 153.395 79.9059 168.701 81.7912C176.498 82.7515 184.657 80.894 192.13 83.31C196.268 84.6495 199.798 87.2121 202.642 90.4772C204.553 92.6929 206.153 95.1586 207.397 97.8061C208.309 99.72 209.049 101.711 209.608 103.755C209.712 104.132 209.808 104.508 209.902 104.885C213.624 120.058 207.676 135.964 195.224 145.431Z" fill="#F2F2F2"/>
<path d="M70.6939 117.963H46.8899C43.3236 117.963 40.4325 120.848 40.4325 124.407V124.407C40.4325 127.966 43.3236 130.852 46.8899 130.852H70.6939C74.2603 130.852 77.1514 127.966 77.1514 124.407C77.1514 120.848 74.2603 117.963 70.6939 117.963Z" fill="#3F3D56"/>
<path d="M63.4768 127.566V138.289C61.0316 138.525 58.5672 138.478 56.133 138.148V127.566H63.4768Z" fill="#3F3D56"/>
<path d="M88.1975 131.509C87.9974 131.537 87.7999 131.564 87.5999 131.597C79.5977 132.876 72.2944 137.187 64.2568 138.203C63.9959 138.236 63.7376 138.266 63.4768 138.289C63.3654 138.299 63.254 138.312 63.1425 138.32C61.18 136.401 59.2174 134.359 57.3739 132.244C56.3736 131.099 55.4062 129.932 54.4971 128.749C52.137 125.696 50.1364 122.557 48.8146 119.474C48.9488 117.996 48.027 114.576 47.5864 111.958L47.5838 111.956C47.3964 110.856 47.2951 109.901 47.3888 109.287C47.9257 105.744 50.8252 106.151 51.7166 102.678C52.5207 102.012 53.3768 101.411 54.2768 100.882C54.4262 100.793 54.5782 100.705 54.7352 100.616L64.4087 93.9443L68.1059 97.5633L73.7328 103.073L79.8306 109.039L74.6545 114.258C74.6545 114.258 78.9798 119.234 84.0369 125.868C85.3942 127.65 86.8047 129.553 88.1975 131.509Z" fill="#2F2E41"/>
<path d="M171.608 127.566V158.517C169.22 159.262 166.757 159.738 164.264 159.935V127.566H171.608Z" fill="#3F3D56"/>
<path d="M181.104 125.039H157.3C153.734 125.039 150.842 127.924 150.842 131.483V131.483C150.842 135.043 153.734 137.928 157.3 137.928H181.104C184.67 137.928 187.561 135.043 187.561 131.483C187.561 127.924 184.67 125.039 181.104 125.039Z" fill="#3F3D56"/>
<path d="M123.199 141.658C121.921 140.885 120.62 140.129 119.297 139.391C119.135 139.303 118.973 139.212 118.811 139.123L119.682 138.752L122.032 137.744L122.055 137.733L122.08 137.819L123.199 141.658Z" fill="#FFB6B6"/>
<path d="M126.838 143.907C126.421 143.642 126.005 143.382 125.587 143.124H125.585C124.911 142.702 124.236 142.286 123.559 141.875C123.44 141.802 123.321 141.731 123.199 141.658C121.921 140.885 120.62 140.129 119.297 139.391C119.135 139.303 118.973 139.212 118.811 139.123C116.252 137.707 113.621 136.422 110.93 135.274C109.163 134.531 107.372 133.862 105.564 133.291H105.562L104.141 130.917L97.7469 120.23L96.3415 117.882C96.3415 117.882 91.5477 119.297 84.7636 120.654C82.2946 121.15 79.5647 121.635 76.7007 122.044C73.6391 122.479 70.428 122.825 67.2373 122.992C65.7154 123.073 64.1985 123.113 62.7044 123.101C58.8426 123.076 55.1327 122.714 51.8837 121.855C50.7999 120.839 47.5332 119.457 45.1933 118.19H45.1908C44.2082 117.66 43.3928 117.152 42.9648 116.699C40.4984 114.096 42.6053 112.067 40.4122 109.226C40.3827 108.184 40.4361 107.142 40.5718 106.108C40.5946 105.936 40.6174 105.762 40.6452 105.585L41.3365 93.8686L46.4721 93.1913L54.2869 92.1602L62.7525 91.0432L63.6844 98.3266C63.6844 98.3266 70.2761 97.993 78.6278 98.1042C92.0416 98.2862 109.991 99.6206 112.422 105.347C112.65 105.886 112.878 106.429 113.106 106.972C113.647 108.271 114.184 109.577 114.716 110.889C116.643 115.641 118.482 120.437 120.161 124.971C121.204 127.791 122.187 130.511 123.091 133.055C123.817 135.103 124.491 137.038 125.106 138.82C125.668 140.448 126.177 141.946 126.631 143.291C126.702 143.5 126.77 143.708 126.838 143.907Z" fill="#2F2E41"/>
<path d="M79.5962 72.9212L63.3752 59.1729L73.9288 48.5139L81.2915 60.5492L108.584 65.9491C109.404 65.3328 110.387 64.968 111.412 64.8993C112.436 64.8307 113.459 65.0611 114.355 65.5624C115.251 66.0637 115.981 66.8143 116.457 67.7227C116.932 68.6311 117.133 69.6581 117.034 70.6783C116.935 71.6985 116.541 72.668 115.899 73.4684C115.258 74.2689 114.397 74.8658 113.421 75.1863C112.446 75.5069 111.398 75.5373 110.405 75.2737C109.413 75.0102 108.519 74.4641 107.832 73.7021L79.5962 72.9212Z" fill="#A0616A"/>
<path d="M49.0396 41.1042C47.165 47.1904 65.0185 61.706 65.0185 61.706C65.2169 60.2449 75.3393 72.8443 76.028 71.7032C77.9852 68.4603 80.1389 60.444 82.3985 59.4195C83.6907 58.8336 76.2777 50.6897 76.2777 50.6897C76.2777 50.6897 72.4962 45.6969 67.5035 39.3692C66.1252 37.5541 64.3092 36.1166 62.2244 35.1904C60.1397 34.2642 57.854 33.8794 55.5802 34.0719C55.5802 34.0719 50.9142 35.0181 49.0396 41.1042Z" fill="#3F3D56"/>
<path d="M56.9333 27.6308C62.9925 27.6308 67.9044 22.7288 67.9044 16.6819C67.9044 10.635 62.9925 5.73303 56.9333 5.73303C50.8741 5.73303 45.9622 10.635 45.9622 16.6819C45.9622 22.7288 50.8741 27.6308 56.9333 27.6308Z" fill="#A0616A"/>
<path d="M62.4189 34.8671C64.7825 36.2694 66.1964 38.846 67.008 41.4679C68.5106 46.3219 69.4151 51.3406 69.7015 56.413L70.5587 71.5988L81.1759 103.934C71.9744 111.704 37.387 105.7 37.387 105.7C37.387 105.7 36.3253 105.347 37.387 104.287C38.4487 103.227 39.4823 104.166 38.4206 103.107C37.3589 102.047 38.0908 103.227 38.4447 102.168C38.7986 101.108 38.4447 101.815 38.0908 101.461C37.7369 101.108 40.8306 97.9295 40.8306 97.9295L37.9993 79.369L34.4603 41.9309C38.7072 36.633 47.2482 33.51 47.2482 33.51L49.4551 29.5457L60.4896 30.4266L62.4189 34.8671Z" fill="#3F3D56"/>
<path d="M65.9773 10.8649C66.83 11.4996 67.4617 12.3852 67.7835 13.397C67.9072 11.7435 67.915 10.0833 67.807 8.4287C67.6777 7.26597 66.8575 7.00443 65.9077 6.70138C65.0499 6.42759 64.0799 6.1183 63.8189 4.98956C60.3702 1.64141 54.3668 1.81024 50.2581 2.97813C47.9974 3.6208 46.6965 4.4465 46.5801 4.9302L46.556 5.02977L46.4642 5.07558C44.7215 5.94515 44.3823 8.69108 44.4047 10.8415C44.4472 14.8929 45.8489 19.4944 46.6385 19.8682C46.6803 19.8879 46.6909 19.8802 46.709 19.8651C47.898 18.9169 49.3486 19.9372 49.9861 20.4919C50.3621 17.9738 51.5728 15.6542 53.4248 13.9033C55.2768 12.1525 57.6633 11.0716 60.2031 10.8331C61.0326 10.7531 61.8554 10.6154 62.6656 10.421C63.0766 10.3149 63.4991 10.2596 63.9236 10.2563C64.6544 10.2452 65.371 10.4576 65.9773 10.8649Z" fill="#2F2E41"/>
<path d="M52.1532 89.417L48.7972 87.7017C48.6173 87.5738 48.4896 87.3856 48.4373 87.1715C48.385 86.9575 48.4116 86.7318 48.5123 86.5356C48.6129 86.3395 48.7809 86.1861 48.9855 86.1033C49.1901 86.0206 49.4178 86.014 49.6268 86.0849L52.9829 87.8002C53.1627 87.9281 53.2904 88.1163 53.3427 88.3303C53.395 88.5444 53.3684 88.7701 53.2678 88.9662C53.1671 89.1624 52.9992 89.3158 52.7945 89.3986C52.5899 89.4813 52.3623 89.4878 52.1532 89.417Z" fill="#1A237E"/>
<path d="M40.8583 84.8214L35.3375 64.3101L50.0905 61.5229L49.2972 75.6018L68.6814 95.5208C69.7077 95.479 70.7239 95.736 71.6063 96.2605C72.4887 96.7851 73.199 97.5546 73.6508 98.4751C74.1026 99.3956 74.2762 100.427 74.1505 101.445C74.0248 102.462 73.6052 103.421 72.9429 104.204C72.2807 104.988 71.4043 105.562 70.4206 105.857C69.437 106.152 68.3886 106.155 67.4034 105.865C66.4181 105.576 65.5384 105.007 64.8717 104.227C64.205 103.447 63.78 102.491 63.6485 101.474L40.8583 84.8214Z" fill="#A0616A"/>
<path d="M33.8278 41.3125C28.8201 45.2579 35.2475 67.3264 35.2475 67.3264C36.2427 66.2365 37.399 82.3443 38.6154 81.7958C42.0724 80.237 48.4086 74.8616 50.8513 75.2998C52.2483 75.5504 50.7847 64.6453 50.7847 64.6453C50.7847 64.6453 50.5155 58.3925 50.0096 50.3544C49.9088 48.0792 49.2328 45.8665 48.0446 43.9222C46.8564 41.9779 45.1946 40.3653 43.2139 39.2343C43.2139 39.2343 38.8355 37.3672 33.8278 41.3125Z" fill="#3F3D56"/>
<path d="M207.397 97.806L6.98287 97.5785C5.85659 95.1956 4.85663 92.7551 3.98712 90.2673L202.641 90.4771C204.553 92.6928 206.153 95.1585 207.397 97.806Z" fill="#3F3D56"/>
<path d="M143.565 150.832C142.529 151.332 141.484 151.815 140.43 152.28C138.677 151.287 136.945 150.248 135.223 149.187L141.61 146.386L143.565 150.832Z" fill="#FFB6B6"/>
<path d="M190.129 116.007C189.091 117.397 188.02 118.759 186.916 120.093C185.898 121.324 184.853 122.531 183.781 123.715C183.337 124.205 182.889 124.693 182.431 125.176C181.588 126.078 180.726 126.965 179.845 127.837C178.26 128.335 175.049 129.212 171.608 130.03C169.103 130.624 166.477 131.188 164.264 131.547C163.025 131.769 161.772 131.902 160.513 131.946C159.019 131.959 157.503 131.918 155.981 131.837C154.264 131.746 152.544 131.605 150.845 131.423C146.426 130.96 142.146 130.24 138.454 129.5C137.102 129.232 135.831 128.959 134.661 128.693C132.445 128.196 130.591 127.731 129.249 127.377C127.737 126.983 126.876 126.727 126.876 126.727L123.091 133.055L121.125 136.338L119.682 138.752L119.297 139.391C119.135 139.303 118.973 139.212 118.811 139.123C116.252 137.707 113.621 136.422 110.93 135.274C109.163 134.531 107.372 133.862 105.564 133.29H105.562C104.87 133.073 104.177 132.868 103.48 132.681C103.698 132.098 103.918 131.51 104.141 130.917C104.556 129.813 104.98 128.698 105.412 127.574C106.347 125.138 107.314 122.666 108.309 120.207C109.125 118.188 109.955 116.176 110.796 114.192C111.184 113.277 111.971 112.474 113.073 111.769C113.599 111.437 114.148 111.144 114.716 110.889C117.869 109.456 122.513 108.524 127.631 107.925C128.054 107.877 128.479 107.829 128.907 107.783C133.144 107.339 137.639 107.109 141.843 107.002C143.947 106.949 145.978 106.929 147.867 106.927C148.477 106.927 149.071 106.928 149.647 106.932H149.65C151.207 106.939 152.64 106.962 153.902 106.987C154.147 106.992 154.385 107 154.618 107.005H154.621C154.778 107.007 154.932 107.013 155.084 107.015C157.842 107.086 159.533 107.172 159.533 107.172L160.189 102.036L160.324 101L160.45 100.015V100.012L160.465 99.8883L160.569 99.8858L162.393 99.8504L177.718 99.5522L186.09 99.3879L184.763 105.064L182.573 114.43C182.796 115.911 190.205 114.751 190.129 116.007Z" fill="#2F2E41"/>
<path d="M145.454 149.897C144.828 150.215 144.198 150.529 143.565 150.832C142.529 151.332 141.484 151.815 140.429 152.28C138.677 151.287 136.945 150.248 135.223 149.187C132.412 147.453 129.629 145.659 126.838 143.907C126.421 143.642 126.005 143.382 125.587 143.124H125.585C124.435 141.421 123.263 139.646 122.08 137.819C122.062 137.794 122.047 137.769 122.032 137.743C121.728 137.278 121.426 136.81 121.125 136.338C119.234 133.381 117.332 130.298 115.486 127.149L120.161 124.971L128.852 120.922L130.351 120.225L134.661 128.694L138.505 136.247L139.361 137.928L145.454 149.897Z" fill="#2F2E41"/>
<path d="M146.764 109.238L168.922 87.9129L175.063 70.5586L166.004 66.6274C161.351 71.0757 156.321 84.9306 156.321 84.9306L141.074 104.29C140.955 104.331 140.836 104.374 140.719 104.425C140.032 104.728 139.435 105.202 138.986 105.801C138.536 106.401 138.249 107.107 138.153 107.849C138.056 108.592 138.153 109.347 138.434 110.042C138.715 110.736 139.172 111.347 139.758 111.814C140.345 112.281 141.043 112.589 141.783 112.709C142.524 112.828 143.284 112.755 143.988 112.496C144.692 112.237 145.318 111.801 145.804 111.231C146.29 110.66 146.621 109.974 146.764 109.238Z" fill="#FFB8B8"/>
<path d="M163.455 68.5651L174.946 72.2056L174.989 72.1984C179.266 71.4835 182.815 64.5126 185.039 58.7906C185.77 56.9033 185.757 54.809 185 52.9314C184.244 51.0537 182.802 49.5326 180.965 48.6756C179.605 48.0525 178.098 47.8214 176.614 48.0083C175.13 48.1951 173.728 48.7926 172.566 49.7331L166.666 54.5447L163.455 68.5651Z" fill="#1A237E"/>
<path d="M190.083 116.263L190.15 116.174C193.735 111.429 188.832 99.6779 188.091 97.9737L191.424 96.9883L190.843 90.6541L190.563 87.8297L193.155 85.3733L193.164 85.3106L194.946 72.6512L197.278 64.2726C198.158 61.1051 198.176 57.7612 197.332 54.5842C196.489 51.4071 194.813 48.5114 192.477 46.1943L187.709 41.4702L181.997 32.5475L172.42 32.3008L168.976 38.4062C165.773 39.0585 162.902 40.8114 160.861 43.3596C158.82 45.9077 157.74 49.0896 157.808 52.351L158.132 68.6049L154.696 88.7435L154.599 92.4016L151.226 95.9536L151.85 99.5447L149.327 100.548L148.092 105.65C147.621 106.239 144.507 110.167 144.479 111.261C144.475 111.426 144.592 111.588 144.849 111.771C146.864 113.21 158.128 116.328 163.197 114.453C168.597 112.458 189.76 116.205 189.973 116.243L190.083 116.263Z" fill="#1A237E"/>
<path d="M176.372 29.5655C183.379 29.5655 189.06 23.8965 189.06 16.9033C189.06 9.91016 183.379 4.24109 176.372 4.24109C169.365 4.24109 163.684 9.91016 163.684 16.9033C163.684 23.8965 169.365 29.5655 176.372 29.5655Z" fill="#FFB8B8"/>
<path d="M174.824 29.7349C176.789 29.7655 178.753 29.6285 180.694 29.3255C182.619 28.935 186.924 25.7866 188.124 23.8921C189.016 22.4844 189.586 20.2863 189.907 18.6903C190.34 16.5783 190.323 14.3991 189.859 12.2938C189.394 10.1886 188.491 8.20421 187.209 6.46922C186.717 5.74352 186.036 5.16421 185.241 4.79258C185.17 4.76506 185.098 4.74068 185.024 4.71983C183.865 4.41544 182.824 3.77221 182.033 2.87273C181.88 2.6908 181.714 2.52011 181.536 2.36201C180.643 1.60976 179.584 1.07914 178.446 0.813522C176.609 0.322888 173.95 0.809908 170.545 2.26245C168.833 2.99224 166.962 2.72813 165.522 2.41648C165.442 2.40091 165.358 2.40672 165.28 2.43332C165.203 2.45992 165.133 2.50639 165.079 2.56811C164.466 3.14196 163.659 3.46318 162.819 3.4672C162.304 3.48976 161.764 4.20079 161.112 5.12802C160.964 5.3385 160.791 5.58415 160.666 5.73355L160.65 5.44651L160.359 5.76673C159.901 6.27002 159.579 6.88068 159.421 7.54184C159.264 8.20299 159.277 8.89314 159.458 9.54802C159.64 10.2029 159.985 10.8012 160.461 11.2872C160.937 11.7732 161.529 12.1311 162.18 12.3276C162.698 12.4651 163.228 12.5494 163.763 12.5793C164.087 12.6084 164.422 12.6385 164.743 12.6941C165.774 12.9047 166.732 13.3784 167.524 14.069C168.317 14.7595 168.916 15.6433 169.264 16.6341C169.346 16.8631 169.48 17.0702 169.655 17.2393C169.831 17.4085 170.043 17.5352 170.275 17.6097C170.507 17.6842 170.753 17.7045 170.994 17.669C171.235 17.6335 171.465 17.5431 171.666 17.4049C172 17.145 172.393 16.9697 172.81 16.8939C173.227 16.8181 173.656 16.8441 174.061 16.9696C174.411 17.1638 174.683 17.4721 174.832 17.8428C175.013 18.2558 175.314 18.6056 175.695 18.8475C176.999 19.5185 177.089 22.491 176.621 24.969C176.169 27.3575 175.277 29.0854 174.451 29.1708C173.814 29.2365 173.742 29.2816 173.696 29.3938L173.654 29.4943L173.726 29.5884C174.077 29.7155 174.452 29.7655 174.824 29.7349Z" fill="#2F2E41"/>
<path d="M166.606 64.737L161.714 55.0033C154.613 55.4874 140.519 63.6811 140.519 63.6811L113.854 69.3232C113.064 69.0202 112.208 68.9301 111.372 69.0622C110.537 69.1943 109.75 69.5437 109.093 70.0755C108.435 70.6072 107.93 71.3024 107.627 72.0911C107.324 72.8798 107.235 73.7341 107.369 74.5681C107.502 75.4021 107.853 76.1864 108.387 76.8419C108.92 77.4975 109.617 78.0012 110.408 78.3023C111.199 78.6034 112.055 78.6914 112.89 78.5574C113.726 78.4233 114.511 78.0719 115.168 77.5387L149.087 75.1122L166.606 64.737Z" fill="#FFB8B8"/>
<path d="M164.633 66.3352L177.409 56.8595L179.66 48.7656C180.096 47.175 180.077 45.4945 179.607 43.9138C179.136 42.3331 178.231 40.9154 176.996 39.8208C175.31 38.3482 173.128 37.5692 170.889 37.6413C168.65 37.7134 166.522 38.6312 164.936 40.2091C160.127 44.9985 154.644 51.6801 155.822 56.3133L155.834 56.3602L164.633 66.3352Z" fill="#1A237E"/>
<path d="M148.817 91.6799H114.63V96.2289H148.817V91.6799Z" fill="white"/>
<path d="M61.4509 91.6799H27.2643V96.2289H61.4509V91.6799Z" fill="white"/>
<path d="M65.4429 69.804V91.4632C65.4431 91.7392 65.5531 92.0038 65.7486 92.199C65.9442 92.3942 66.2094 92.5039 66.486 92.5041H98.6478C98.9244 92.5039 99.1895 92.3942 99.3851 92.199C99.5807 92.0038 99.6906 91.7392 99.6909 91.4632V69.804C99.6902 69.5282 99.5801 69.2639 99.3846 69.069C99.1891 68.8741 98.9241 68.7645 98.6478 68.7642H66.486C66.2096 68.7645 65.9447 68.8741 65.7492 69.069C65.5537 69.2639 65.4435 69.5282 65.4429 69.804Z" fill="#3F3D56"/>
<path d="M66.1974 70.0736V91.1961C66.1976 91.3436 66.2565 91.4849 66.361 91.5892C66.4654 91.6935 66.6071 91.7522 66.7549 91.7524H98.3801C98.5278 91.7522 98.6695 91.6935 98.774 91.5892C98.8785 91.4849 98.9373 91.3436 98.9375 91.1961V70.0736C98.9375 69.926 98.8788 69.7843 98.7743 69.6798C98.6698 69.5753 98.528 69.5164 98.3801 69.5161H66.7549C66.6069 69.5164 66.4651 69.5753 66.3606 69.6798C66.2561 69.7843 66.1974 69.926 66.1974 70.0736Z" fill="#1A237E"/>
<path d="M64.7702 95.6872C64.8292 95.761 64.904 95.8204 64.9893 95.8611C65.0745 95.9018 65.1679 95.9227 65.2624 95.9222H99.7001C99.7943 95.9221 99.8873 95.901 99.9723 95.8606C100.057 95.8201 100.132 95.7612 100.192 95.6882C100.251 95.6152 100.293 95.5299 100.315 95.4386C100.337 95.3472 100.339 95.2521 100.32 95.1601L99.785 92.626C99.7628 92.5227 99.7151 92.4265 99.6462 92.3463C99.5773 92.266 99.4894 92.2043 99.3904 92.1666C99.3188 92.1386 99.2425 92.1242 99.1656 92.1243H65.7948C65.7179 92.1242 65.6416 92.1386 65.57 92.1666C65.471 92.2043 65.3831 92.266 65.3142 92.3463C65.2453 92.4265 65.1976 92.5227 65.1754 92.626L64.6408 95.1601C64.6218 95.252 64.6236 95.347 64.6459 95.4382C64.6683 95.5294 64.7108 95.6145 64.7702 95.6872Z" fill="#2F2E41"/>
<path d="M97.9839 93.2158H98.7973C98.8656 93.2158 98.921 93.1606 98.921 93.0924V92.7041C98.921 92.6359 98.8656 92.5807 98.7973 92.5807H97.9839C97.9157 92.5807 97.8603 92.6359 97.8603 92.7041V93.0924C97.8603 93.1606 97.9157 93.2158 97.9839 93.2158Z" fill="#3F3D56"/>
<path d="M95.8626 93.2158H96.676C96.7443 93.2158 96.7997 93.1606 96.7997 93.0924V92.7041C96.7997 92.6359 96.7443 92.5807 96.676 92.5807H95.8626C95.7944 92.5807 95.739 92.6359 95.739 92.7041V93.0924C95.739 93.1606 95.7944 93.2158 95.8626 93.2158Z" fill="#3F3D56"/>
<path d="M93.7413 93.2158H94.5547C94.6229 93.2158 94.6783 93.1606 94.6783 93.0924V92.7041C94.6783 92.6359 94.6229 92.5807 94.5547 92.5807H93.7413C93.673 92.5807 93.6176 92.6359 93.6176 92.7041V93.0924C93.6176 93.1606 93.673 93.2158 93.7413 93.2158Z" fill="#3F3D56"/>
<path d="M91.62 93.2158H92.4334C92.5016 93.2158 92.557 93.1606 92.557 93.0924V92.7041C92.557 92.6359 92.5016 92.5807 92.4334 92.5807H91.62C91.5517 92.5807 91.4963 92.6359 91.4963 92.7041V93.0924C91.4963 93.1606 91.5517 93.2158 91.62 93.2158Z" fill="#3F3D56"/>
<path d="M89.4986 93.2158H90.3121C90.3803 93.2158 90.4357 93.1606 90.4357 93.0924V92.7041C90.4357 92.6359 90.3803 92.5807 90.3121 92.5807H89.4986C89.4304 92.5807 89.375 92.6359 89.375 92.7041V93.0924C89.375 93.1606 89.4304 93.2158 89.4986 93.2158Z" fill="#3F3D56"/>
<path d="M87.3773 93.2158H88.1907C88.259 93.2158 88.3143 93.1606 88.3143 93.0924V92.7041C88.3143 92.6359 88.259 92.5807 88.1907 92.5807H87.3773C87.309 92.5807 87.2537 92.6359 87.2537 92.7041V93.0924C87.2537 93.1606 87.309 93.2158 87.3773 93.2158Z" fill="#3F3D56"/>
<path d="M85.256 93.2158H86.0694C86.1377 93.2158 86.193 93.1606 86.193 93.0924V92.7041C86.193 92.6359 86.1377 92.5807 86.0694 92.5807H85.256C85.1877 92.5807 85.1323 92.6359 85.1323 92.7041V93.0924C85.1323 93.1606 85.1877 93.2158 85.256 93.2158Z" fill="#3F3D56"/>
<path d="M83.1346 93.2158H83.948C84.0163 93.2158 84.0717 93.1606 84.0717 93.0924V92.7041C84.0717 92.6359 84.0163 92.5807 83.948 92.5807H83.1346C83.0663 92.5807 83.011 92.6359 83.011 92.7041V93.0924C83.011 93.1606 83.0663 93.2158 83.1346 93.2158Z" fill="#3F3D56"/>
<path d="M81.0133 93.2158H81.8267C81.895 93.2158 81.9503 93.1606 81.9503 93.0924V92.7041C81.9503 92.6359 81.895 92.5807 81.8267 92.5807H81.0133C80.945 92.5807 80.8897 92.6359 80.8897 92.7041V93.0924C80.8897 93.1606 80.945 93.2158 81.0133 93.2158Z" fill="#3F3D56"/>
<path d="M78.8919 93.2158H79.7054C79.7736 93.2158 79.829 93.1606 79.829 93.0924V92.7041C79.829 92.6359 79.7736 92.5807 79.7054 92.5807H78.8919C78.8237 92.5807 78.7683 92.6359 78.7683 92.7041V93.0924C78.7683 93.1606 78.8237 93.2158 78.8919 93.2158Z" fill="#3F3D56"/>
<path d="M76.7706 93.2158H77.584C77.6523 93.2158 77.7076 93.1606 77.7076 93.0924V92.7041C77.7076 92.6359 77.6523 92.5807 77.584 92.5807H76.7706C76.7023 92.5807 76.647 92.6359 76.647 92.7041V93.0924C76.647 93.1606 76.7023 93.2158 76.7706 93.2158Z" fill="#3F3D56"/>
<path d="M74.6493 93.2158H75.4627C75.531 93.2158 75.5863 93.1606 75.5863 93.0924V92.7041C75.5863 92.6359 75.531 92.5807 75.4627 92.5807H74.6493C74.581 92.5807 74.5256 92.6359 74.5256 92.7041V93.0924C74.5256 93.1606 74.581 93.2158 74.6493 93.2158Z" fill="#3F3D56"/>
<path d="M72.5279 93.2158H73.3413C73.4096 93.2158 73.465 93.1606 73.465 93.0924V92.7041C73.465 92.6359 73.4096 92.5807 73.3413 92.5807H72.5279C72.4597 92.5807 72.4043 92.6359 72.4043 92.7041V93.0924C72.4043 93.1606 72.4597 93.2158 72.5279 93.2158Z" fill="#3F3D56"/>
<path d="M70.4066 93.2158H71.22C71.2883 93.2158 71.3436 93.1606 71.3436 93.0924V92.7041C71.3436 92.6359 71.2883 92.5807 71.22 92.5807H70.4066C70.3383 92.5807 70.283 92.6359 70.283 92.7041V93.0924C70.283 93.1606 70.3383 93.2158 70.4066 93.2158Z" fill="#3F3D56"/>
<path d="M68.2853 93.2158H69.0987C69.1669 93.2158 69.2223 93.1606 69.2223 93.0924V92.7041C69.2223 92.6359 69.1669 92.5807 69.0987 92.5807H68.2853C68.217 92.5807 68.1616 92.6359 68.1616 92.7041V93.0924C68.1616 93.1606 68.217 93.2158 68.2853 93.2158Z" fill="#3F3D56"/>
<path d="M66.1639 93.2158H66.9773C67.0456 93.2158 67.101 93.1606 67.101 93.0924V92.7041C67.101 92.6359 67.0456 92.5807 66.9773 92.5807H66.1639C66.0956 92.5807 66.0403 92.6359 66.0403 92.7041V93.0924C66.0403 93.1606 66.0956 93.2158 66.1639 93.2158Z" fill="#3F3D56"/>
<path d="M98.009 94.2744H98.8224C98.8907 94.2744 98.946 94.2192 98.946 94.151V93.7627C98.946 93.6945 98.8907 93.6393 98.8224 93.6393H98.009C97.9407 93.6393 97.8854 93.6945 97.8854 93.7627V94.151C97.8854 94.2192 97.9407 94.2744 98.009 94.2744Z" fill="#3F3D56"/>
<path d="M95.8877 94.2744H96.7011C96.7694 94.2744 96.8247 94.2192 96.8247 94.151V93.7627C96.8247 93.6945 96.7694 93.6393 96.7011 93.6393H95.8877C95.8194 93.6393 95.764 93.6945 95.764 93.7627V94.151C95.764 94.2192 95.8194 94.2744 95.8877 94.2744Z" fill="#3F3D56"/>
<path d="M93.7663 94.2744H94.5797C94.648 94.2744 94.7034 94.2192 94.7034 94.151V93.7627C94.7034 93.6945 94.648 93.6393 94.5797 93.6393H93.7663C93.698 93.6393 93.6427 93.6945 93.6427 93.7627V94.151C93.6427 94.2192 93.698 94.2744 93.7663 94.2744Z" fill="#3F3D56"/>
<path d="M91.645 94.2744H92.4584C92.5267 94.2744 92.582 94.2192 92.582 94.151V93.7627C92.582 93.6945 92.5267 93.6393 92.4584 93.6393H91.645C91.5767 93.6393 91.5214 93.6945 91.5214 93.7627V94.151C91.5214 94.2192 91.5767 94.2744 91.645 94.2744Z" fill="#3F3D56"/>
<path d="M89.5237 94.2744H90.3371C90.4054 94.2744 90.4608 94.2192 90.4608 94.151V93.7627C90.4608 93.6945 90.4054 93.6393 90.3371 93.6393H89.5237C89.4554 93.6393 89.4001 93.6945 89.4001 93.7627V94.151C89.4001 94.2192 89.4554 94.2744 89.5237 94.2744Z" fill="#3F3D56"/>
<path d="M87.4023 94.2744H88.2157C88.284 94.2744 88.3394 94.2192 88.3394 94.151V93.7627C88.3394 93.6945 88.284 93.6393 88.2157 93.6393H87.4023C87.334 93.6393 87.2787 93.6945 87.2787 93.7627V94.151C87.2787 94.2192 87.334 94.2744 87.4023 94.2744Z" fill="#3F3D56"/>
<path d="M85.281 94.2744H86.0944C86.1627 94.2744 86.218 94.2192 86.218 94.151V93.7627C86.218 93.6945 86.1627 93.6393 86.0944 93.6393H85.281C85.2127 93.6393 85.1574 93.6945 85.1574 93.7627V94.151C85.1574 94.2192 85.2127 94.2744 85.281 94.2744Z" fill="#3F3D56"/>
<path d="M83.1596 94.2744H83.9731C84.0413 94.2744 84.0967 94.2192 84.0967 94.151V93.7627C84.0967 93.6945 84.0413 93.6393 83.9731 93.6393H83.1596C83.0914 93.6393 83.036 93.6945 83.036 93.7627V94.151C83.036 94.2192 83.0914 94.2744 83.1596 94.2744Z" fill="#3F3D56"/>
<path d="M81.0384 94.2744H81.8518C81.9201 94.2744 81.9754 94.2192 81.9754 94.151V93.7627C81.9754 93.6945 81.9201 93.6393 81.8518 93.6393H81.0384C80.9701 93.6393 80.9147 93.6945 80.9147 93.7627V94.151C80.9147 94.2192 80.9701 94.2744 81.0384 94.2744Z" fill="#3F3D56"/>
<path d="M78.917 94.2744H79.7304C79.7987 94.2744 79.8541 94.2192 79.8541 94.151V93.7627C79.8541 93.6945 79.7987 93.6393 79.7304 93.6393H78.917C78.8488 93.6393 78.7934 93.6945 78.7934 93.7627V94.151C78.7934 94.2192 78.8488 94.2744 78.917 94.2744Z" fill="#3F3D56"/>
<path d="M76.7957 94.2744H77.6091C77.6774 94.2744 77.7327 94.2192 77.7327 94.151V93.7627C77.7327 93.6945 77.6774 93.6393 77.6091 93.6393H76.7957C76.7274 93.6393 76.6721 93.6945 76.6721 93.7627V94.151C76.6721 94.2192 76.7274 94.2744 76.7957 94.2744Z" fill="#3F3D56"/>
<path d="M74.6743 94.2744H75.4878C75.556 94.2744 75.6114 94.2192 75.6114 94.151V93.7627C75.6114 93.6945 75.556 93.6393 75.4878 93.6393H74.6743C74.6061 93.6393 74.5507 93.6945 74.5507 93.7627V94.151C74.5507 94.2192 74.6061 94.2744 74.6743 94.2744Z" fill="#3F3D56"/>
<path d="M72.553 94.2744H73.3664C73.4347 94.2744 73.4901 94.2192 73.4901 94.151V93.7627C73.4901 93.6945 73.4347 93.6393 73.3664 93.6393H72.553C72.4847 93.6393 72.4294 93.6945 72.4294 93.7627V94.151C72.4294 94.2192 72.4847 94.2744 72.553 94.2744Z" fill="#3F3D56"/>
<path d="M70.4317 94.2744H71.2451C71.3134 94.2744 71.3687 94.2192 71.3687 94.151V93.7627C71.3687 93.6945 71.3134 93.6393 71.2451 93.6393H70.4317C70.3634 93.6393 70.308 93.6945 70.308 93.7627V94.151C70.308 94.2192 70.3634 94.2744 70.4317 94.2744Z" fill="#3F3D56"/>
<path d="M68.3103 94.2744H69.1237C69.192 94.2744 69.2474 94.2192 69.2474 94.151V93.7627C69.2474 93.6945 69.192 93.6393 69.1237 93.6393H68.3103C68.2421 93.6393 68.1867 93.6945 68.1867 93.7627V94.151C68.1867 94.2192 68.2421 94.2744 68.3103 94.2744Z" fill="#3F3D56"/>
<path d="M66.189 94.2744H67.0024C67.0707 94.2744 67.126 94.2192 67.126 94.151V93.7627C67.126 93.6945 67.0707 93.6393 67.0024 93.6393H66.189C66.1207 93.6393 66.0654 93.6945 66.0654 93.7627V94.151C66.0654 94.2192 66.1207 94.2744 66.189 94.2744Z" fill="#3F3D56"/>
<path d="M80.402 95.5447H88.64C88.7083 95.5447 88.7637 95.4894 88.7637 95.4213V95.0329C88.7637 94.9648 88.7083 94.9096 88.64 94.9096H80.402C80.3337 94.9096 80.2783 94.9648 80.2783 95.0329V95.4213C80.2783 95.4894 80.3337 95.5447 80.402 95.5447Z" fill="#3F3D56"/>
</g>
<defs>
<clipPath id="clip0_18_274">
<rect width="211" height="160" fill="white"/>
</clipPath>
</defs>
</svg>
