<svg width="221" height="187" viewBox="0 0 221 187" fill="none" xmlns="http://www.w3.org/2000/svg">
<g clip-path="url(#clip0_18_366)">
<path d="M102.8 26.266C95.4683 20.8478 85.1464 18.7708 77.0699 22.9977C86.1621 26.947 93.5649 33.9864 97.9686 42.8704C99.6544 46.3028 101.172 50.296 104.651 51.8823C106.815 52.8694 109.37 52.6788 111.611 51.8818C113.852 51.0847 115.846 49.7307 117.811 48.3909L118.401 48.3199C114.902 39.8996 110.131 31.6841 102.8 26.266Z" fill="#F0F0F0"/>
<path d="M77.1349 23.1776C84.6758 23.414 91.9506 26.0214 97.926 30.6294C99.2299 31.5986 100.373 32.7673 101.313 34.0926C102.187 35.4131 102.692 36.9438 102.775 38.5255C102.882 39.9988 102.82 41.5181 103.283 42.9397C103.531 43.6639 103.929 44.3275 104.451 44.887C104.973 45.4465 105.608 45.8892 106.313 46.1862C108.051 46.972 109.967 47.0862 111.845 47.1327C113.93 47.1844 116.097 47.205 117.993 48.1872C118.223 48.3063 118.394 47.9426 118.165 47.8238C114.865 46.115 111.01 47.2299 107.543 46.2129C105.925 45.7383 104.44 44.773 103.79 43.158C103.222 41.7458 103.284 40.179 103.188 38.6864C103.13 37.1422 102.695 35.6357 101.921 34.2986C101.051 32.9297 99.9548 31.7189 98.679 30.718C95.8428 28.4187 92.6628 26.5798 89.2556 25.2687C85.3753 23.7508 81.264 22.9082 77.0996 22.7772C76.8419 22.7692 76.8788 23.1697 77.1349 23.1776Z" fill="white"/>
<path d="M96.0892 29.0324C96.7259 27.9245 96.9482 26.6262 96.7165 25.3695C96.4847 24.1127 95.8139 22.9793 94.824 22.1717C94.6231 22.0089 94.3609 22.3136 94.562 22.4765C95.4853 23.2269 96.11 24.2827 96.3234 25.4535C96.5368 26.6242 96.3249 27.8327 95.7259 28.8608C95.596 29.0844 95.96 29.2547 96.0892 29.0324Z" fill="white"/>
<path d="M102.819 37.7713C100.304 38.4745 97.6165 38.2036 95.2924 37.0126C95.0622 36.8944 94.891 37.258 95.1209 37.376C97.5418 38.6109 100.339 38.8871 102.955 38.1496C103.204 38.0791 103.067 37.7012 102.819 37.7713Z" fill="white"/>
<path d="M85.3944 24.2833C85.2373 24.7633 84.9635 25.1968 84.5976 25.5448C84.2317 25.8928 83.7851 26.1444 83.2979 26.2771C83.0479 26.3444 83.1851 26.7223 83.4335 26.6554C83.9711 26.5063 84.464 26.2278 84.8691 25.8442C85.2742 25.4606 85.5793 24.9836 85.7576 24.4549C85.7786 24.4064 85.7804 24.3518 85.7626 24.3021C85.7448 24.2524 85.7087 24.2114 85.6618 24.1874C85.6136 24.1649 85.5584 24.1624 85.5083 24.1803C85.4583 24.1983 85.4173 24.2353 85.3944 24.2833Z" fill="white"/>
<path d="M70.6663 53.1997C70.8237 53.1622 70.981 53.1246 71.1408 53.0893C73.2584 52.5952 75.4125 52.274 77.582 52.1289C77.7496 52.115 77.9196 52.1034 78.0872 52.0944C83.3178 51.8006 88.5574 52.4808 93.5398 54.1004C95.5218 54.7468 97.4518 55.543 99.313 56.4823C101.883 57.7796 104.567 59.3908 107.334 59.7522C107.623 59.7931 107.913 59.8162 108.204 59.8212L118.442 49.0448C118.453 49.0087 118.466 48.9747 118.477 48.9384L118.906 48.5268C118.813 48.4717 118.716 48.4165 118.623 48.3613C118.57 48.3291 118.514 48.2993 118.46 48.2671C118.424 48.2464 118.387 48.2258 118.356 48.205C118.344 48.198 118.331 48.1912 118.322 48.1866C118.29 48.1658 118.258 48.1499 118.229 48.1315C117.686 47.8214 117.141 47.5146 116.592 47.211C116.589 47.2087 116.589 47.2087 116.584 47.2087C112.396 44.9066 107.979 42.934 103.403 41.6949C103.265 41.6576 103.125 41.618 102.982 41.5856C100.917 41.0386 98.8096 40.6613 96.6823 40.4576C95.5171 40.3498 94.3472 40.3011 93.1771 40.3117C90.1538 40.3448 87.1545 40.8535 84.2892 41.819C78.5775 43.7447 73.545 47.4763 70.867 52.7916C70.7986 52.9277 70.7323 53.0614 70.6663 53.1997Z" fill="#F0F0F0"/>
<path d="M70.826 53.3056C76.9893 48.9523 84.367 46.6525 91.9112 46.7327C93.5356 46.7211 95.1517 46.9658 96.6999 47.4577C98.1926 47.9856 99.5168 48.9037 100.535 50.1168C101.507 51.2287 102.372 52.4787 103.598 53.3349C104.231 53.7639 104.948 54.054 105.702 54.1863C106.456 54.3185 107.229 54.2899 107.97 54.1023C109.831 53.683 111.43 52.6199 112.957 51.526C114.653 50.3113 116.395 49.0228 118.501 48.6649C118.756 48.6216 118.673 48.2281 118.419 48.2715C114.756 48.8942 112.349 52.1065 108.968 53.383C107.391 53.9787 105.624 54.1023 104.133 53.2042C102.83 52.4188 101.936 51.1305 100.962 49.9961C99.986 48.7982 98.7319 47.8576 97.3089 47.2563C95.7907 46.6872 94.1867 46.3807 92.5657 46.3499C88.9174 46.2223 85.2717 46.6694 81.7622 47.6748C77.7505 48.8 73.9607 50.6035 70.5569 53.0072C70.3463 53.156 70.6168 53.4535 70.826 53.3056Z" fill="white"/>
<path d="M89.4835 46.5639C89.3252 45.2958 88.7214 44.1253 87.78 43.2614C86.8386 42.3976 85.6209 41.8966 84.3444 41.848C84.0861 41.8391 84.06 42.2403 84.3187 42.2492C85.5075 42.2923 86.6417 42.759 87.5167 43.5652C88.3917 44.3714 88.9497 45.464 89.0902 46.6457C89.121 46.9025 89.5142 46.8192 89.4835 46.5639Z" fill="white"/>
<path d="M100.116 49.488C98.5315 51.5642 96.2226 52.9667 93.6501 53.4156C93.3952 53.4598 93.4773 53.8533 93.7319 53.809C96.4081 53.3369 98.8078 51.8726 100.452 49.7083C100.609 49.5019 100.272 49.2827 100.116 49.488Z" fill="white"/>
<path d="M78.0863 49.2136C78.2497 49.6915 78.292 50.2025 78.2093 50.7008C78.1266 51.1991 77.9214 51.669 77.6123 52.0683C77.4532 52.2726 77.7902 52.4917 77.9483 52.2887C78.2877 51.8459 78.5136 51.3267 78.6063 50.7764C78.6989 50.2261 78.6554 49.6614 78.4796 49.1318C78.4672 49.0805 78.4357 49.0359 78.3916 49.0069C78.3475 48.978 78.294 48.9669 78.242 48.976C78.19 48.9871 78.1445 49.0183 78.1153 49.0628C78.0861 49.1073 78.0757 49.1615 78.0863 49.2136Z" fill="white"/>
<path d="M104.734 34.3264H105.528V12.584C105.528 10.9314 105.853 9.29504 106.485 7.76828C107.117 6.24153 108.044 4.85428 109.212 3.68576C110.38 2.51723 111.767 1.5903 113.293 0.9579C114.819 0.325497 116.455 8.90895e-07 118.106 0H164.152C165.804 -3.56344e-06 167.44 0.325486 168.966 0.957885C170.492 1.59028 171.879 2.51721 173.047 3.68573C174.215 4.85425 175.141 6.2415 175.774 7.76825C176.406 9.295 176.731 10.9314 176.731 12.5839V131.865C176.731 135.202 175.406 138.403 173.047 140.763C170.688 143.123 167.488 144.449 164.152 144.449H118.107C114.77 144.449 111.571 143.123 109.212 140.763C106.853 138.403 105.528 135.202 105.528 131.865V49.8031H104.734V34.3264Z" fill="#3F3D56"/>
<path d="M117.599 3.27394H123.609C123.333 3.95187 123.228 4.6874 123.302 5.41574C123.377 6.14407 123.629 6.84286 124.038 7.45054C124.446 8.05822 124.997 8.55614 125.643 8.90044C126.289 9.24474 127.01 9.42485 127.742 9.4249H154.12C154.852 9.42485 155.573 9.24474 156.219 8.90044C156.865 8.55615 157.416 8.05823 157.824 7.45055C158.233 6.84287 158.485 6.14408 158.56 5.41574C158.634 4.6874 158.529 3.95186 158.253 3.27393H163.866C166.358 3.27392 168.747 4.26402 170.509 6.0264C172.27 7.78878 173.26 10.1791 173.26 12.6715V131.777C173.26 133.011 173.017 134.233 172.545 135.374C172.073 136.514 171.381 137.55 170.509 138.422C169.636 139.295 168.601 139.987 167.461 140.459C166.322 140.932 165.1 141.175 163.866 141.175H117.599C116.365 141.175 115.144 140.932 114.004 140.46C112.864 139.987 111.829 139.295 110.957 138.422C110.084 137.55 109.392 136.514 108.92 135.374C108.448 134.233 108.205 133.011 108.205 131.777V12.6715C108.205 10.1791 109.195 7.78878 110.957 6.0264C112.718 4.26402 115.108 3.27393 117.599 3.27394Z" fill="white"/>
<path d="M139.844 102.913C143.251 102.917 146.625 102.248 149.773 100.945C152.922 99.6418 155.782 97.7306 158.191 95.3205C160.601 92.9103 162.511 90.0486 163.813 86.899C165.116 83.7494 165.785 80.3737 165.781 76.9653C165.786 72.1791 164.466 67.4852 161.967 63.4039C159.468 59.3227 155.887 56.0137 151.623 53.8439C148.532 52.2706 145.157 51.3322 141.698 51.0838C138.239 50.8354 134.765 51.2822 131.481 52.3977C125.665 54.3805 120.741 58.3641 117.587 63.6391C114.433 68.9141 113.252 75.1379 114.256 81.2022C115.26 87.2665 118.383 92.7773 123.069 96.7533C127.755 100.729 133.699 102.912 139.844 102.913ZM139.844 52.0347C143.779 52.0231 147.659 52.9542 151.161 54.7502C154.221 56.3102 156.926 58.4863 159.107 61.1419C161.287 63.7975 162.894 66.8754 163.829 70.1822C164.763 73.4889 165.004 76.9533 164.537 80.3577C164.069 83.7621 162.903 87.0331 161.112 89.9653C159.321 92.8975 156.943 95.4275 154.128 97.3967C151.313 99.3658 148.121 100.731 144.753 101.408C141.386 102.084 137.914 102.057 134.558 101.328C131.201 100.598 128.031 99.1826 125.247 97.1694C123.902 96.1979 122.657 95.0931 121.533 93.8719C118.244 90.3123 116.064 85.8707 115.261 81.0909C114.457 76.3111 115.064 71.4005 117.007 66.9605C118.95 62.5205 122.146 58.7438 126.202 56.0927C130.258 53.4417 134.999 52.0314 139.844 52.0347Z" fill="#F0F0F0"/>
<path d="M196.047 53.9372C195.335 54.0265 194.651 54.2709 194.044 54.6532C193.436 55.0354 192.92 55.5462 192.532 56.1496C192.143 56.7531 191.891 57.4344 191.794 58.1456C191.697 58.8568 191.757 59.5807 191.97 60.2662L183.353 67.4475L186.438 73.751L198.465 63.4386C199.593 63.0045 200.522 62.1716 201.076 61.098C201.631 60.0244 201.773 58.7845 201.474 57.6133C201.176 56.4421 200.459 55.4211 199.459 54.7435C198.458 54.066 197.244 53.7791 196.047 53.9372Z" fill="#FFB6B6"/>
<path d="M115.561 83.8849C115.733 82.0262 116.448 78.685 117.054 77.4495C118.918 72.5693 130.961 68.5583 132.578 68.0412L132.988 63.4791L149.72 61.678L151.843 67.5121L157.844 69.7643C158.252 69.9163 158.62 70.1567 158.924 70.468C159.228 70.7794 159.459 71.1542 159.6 71.5654L164.985 73.1223L170.298 74.6589L188.756 61.6475L189.627 62.2173L195.452 66.0196L196.351 66.6064L172.464 88.1655L163.591 86.0828L156.918 84.5124L156.349 86.8257L157.824 94.9527C153.551 99.2289 147.895 101.842 141.87 102.324C135.846 102.806 129.847 101.124 124.949 97.5815L121.158 94.2167C118.517 91.3589 116.567 87.9319 115.459 84.2003L115.561 83.8849Z" fill="#1A237E"/>
<path d="M136.097 57.9469C129.78 55.8547 126.355 49.0362 128.447 42.7172C130.538 36.3983 137.354 32.9717 143.67 35.0639C149.986 37.156 153.412 43.9746 151.32 50.2936C149.229 56.6125 142.413 60.039 136.097 57.9469Z" fill="#FFB6B6"/>
<path d="M149.4 32.7654C148.228 31.0921 146.471 29.9209 144.476 29.4845C142.504 29.0786 140.451 29.4553 138.751 30.535C136.902 29.79 134.909 29.2958 132.951 29.5471C130.993 29.7983 129.074 30.8925 128.168 32.6952C127.977 33.1622 127.746 33.6115 127.477 34.038C126.678 35.1034 125.195 35.2416 123.885 35.2928C124.547 35.6793 125.21 36.0657 125.872 36.4522C125.212 36.7599 124.552 37.0677 123.891 37.3755C124.79 37.7187 125.689 38.0619 126.587 38.4051C124.496 40.2443 123.99 43.5175 124.782 46.2617C125.532 48.8599 127.251 51.047 129.17 52.9195C129.545 51.5223 129.133 50.0076 128.858 48.561C128.569 47.0326 128.522 45.2454 129.592 44.1663C130.314 43.4384 131.372 43.2185 132.37 43.0419C137.405 42.1512 142.486 41.5476 147.589 41.2341C148.272 41.1397 148.968 41.2108 149.618 41.4413C150.859 41.9934 151.358 43.5096 151.718 44.8539C151.891 42.4942 151.753 40.1221 151.309 37.7982C150.968 36.0196 150.432 34.2394 149.4 32.7654Z" fill="#2F2E41"/>
<path d="M133.741 115.139H147.981C148.475 115.139 148.95 114.942 149.3 114.592C149.649 114.243 149.846 113.768 149.846 113.273C149.846 112.778 149.649 112.304 149.3 111.954C148.95 111.604 148.475 111.408 147.981 111.408H133.741C133.246 111.408 132.772 111.604 132.422 111.954C132.072 112.304 131.876 112.778 131.876 113.273C131.876 113.768 132.072 114.243 132.422 114.592C132.772 114.942 133.246 115.139 133.741 115.139Z" fill="#1A237E"/>
<path d="M180.469 15.3061H219.638C219.999 15.3055 220.345 15.1617 220.6 14.9062C220.855 14.6506 220.998 14.3043 220.998 13.9432C220.998 13.5821 220.855 13.2358 220.6 12.9803C220.345 12.7247 219.999 12.5809 219.638 12.5803H180.469C180.107 12.5803 179.761 12.7239 179.505 12.9795C179.25 13.2351 179.106 13.5818 179.106 13.9432C179.106 14.3047 179.25 14.6513 179.505 14.9069C179.761 15.1625 180.107 15.3061 180.469 15.3061Z" fill="#1A237E"/>
<path d="M157.854 24.0108H219.638C219.999 24.0108 220.346 23.8672 220.601 23.6116C220.856 23.356 221 23.0094 221 22.648C221 22.2865 220.856 21.9399 220.601 21.6843C220.346 21.4287 219.999 21.2852 219.638 21.2852H157.854C157.492 21.2852 157.146 21.4287 156.89 21.6843C156.635 21.9399 156.491 22.2865 156.491 22.648C156.491 23.0094 156.635 23.356 156.89 23.6116C157.146 23.8672 157.492 24.0108 157.854 24.0108Z" fill="#1A237E"/>
<path d="M169.727 32.2115H219.638C219.999 32.2115 220.346 32.0679 220.601 31.8123C220.856 31.5567 221 31.2101 221 30.8487C221 30.4872 220.856 30.1406 220.601 29.885C220.346 29.6294 219.999 29.4858 219.638 29.4858H169.727C169.365 29.4858 169.019 29.6294 168.763 29.885C168.508 30.1406 168.364 30.4872 168.364 30.8487C168.364 31.2101 168.508 31.5567 168.763 31.8123C169.019 32.0679 169.365 32.2115 169.727 32.2115Z" fill="#CACACA"/>
<path d="M191.493 40.3821H219.638C219.999 40.3821 220.346 40.2385 220.601 39.983C220.856 39.7274 221 39.3807 221 39.0193C221 38.6579 220.856 38.3112 220.601 38.0557C220.346 37.8001 219.999 37.6565 219.638 37.6565H191.493C191.132 37.6565 190.785 37.8001 190.53 38.0557C190.274 38.3112 190.131 38.6579 190.131 39.0193C190.131 39.3807 190.274 39.7274 190.53 39.983C190.785 40.2385 191.132 40.3821 191.493 40.3821Z" fill="#CACACA"/>
<path d="M175.945 48.552H219.638C219.999 48.5515 220.345 48.4076 220.6 48.1521C220.855 47.8966 220.998 47.5503 220.998 47.1892C220.998 46.8282 220.855 46.4818 220.6 46.2263C220.345 45.9708 219.999 45.827 219.638 45.8264H175.945C175.585 45.827 175.239 45.9708 174.984 46.2263C174.729 46.4818 174.585 46.8282 174.585 47.1892C174.585 47.5503 174.729 47.8966 174.984 48.1521C175.239 48.4076 175.585 48.5515 175.945 48.552Z" fill="#CACACA"/>
<path d="M52.8086 181.884L56.3192 181.884L57.9894 168.337L52.8079 168.337L52.8086 181.884Z" fill="#9F616A"/>
<path d="M51.4274 186.744L64.8305 186.744V186.574C64.8304 185.19 64.2807 183.863 63.3024 182.884C62.3241 181.905 60.9972 181.355 59.6137 181.355H59.6133L57.1651 179.497L52.5972 181.355L51.4272 181.356L51.4274 186.744Z" fill="#2F2E41"/>
<path d="M54.8541 118.217L56.4025 99.3316L57.6188 92.2429L50.8087 90.7383L48.5488 100.443L50.5177 118.742C50.1206 119.228 49.878 119.823 49.8212 120.449C49.7644 121.075 49.8959 121.703 50.1989 122.254C50.5018 122.804 50.9624 123.251 51.5214 123.538C52.0804 123.825 52.7123 123.938 53.3359 123.862C53.9595 123.787 54.5464 123.527 55.0211 123.115C55.4958 122.704 55.8366 122.159 55.9998 121.553C56.163 120.946 56.1411 120.304 55.937 119.71C55.7328 119.115 55.3558 118.596 54.8541 118.217Z" fill="#9F616A"/>
<path d="M71.4566 181.884L74.9672 181.884L76.6374 168.337L71.456 168.337L71.4566 181.884Z" fill="#9F616A"/>
<path d="M77.0749 122.499L78.6312 125.192C78.6312 125.192 80.3413 125.659 79.7824 131.236C79.2235 136.813 79.1994 169.853 76.4942 173.918L76.0048 177.41L70.8963 177.898L70.7675 174.8L64.6762 131.762C64.6762 131.762 61.0888 174.012 58.121 175.046L57.0492 178.566L52.3676 178.568L52.644 174.42L52.3421 122.062L77.0749 122.499Z" fill="#2F2E41"/>
<path d="M78.786 124.987L78.8937 124.959C75.6814 112.939 76.608 97.3749 78.8761 80.6617L78.8761 80.5924L70.6766 73.0791H63.5564L56.498 77.6361C51.9348 79.9185 50.8978 84.7521 50.8878 84.8007L50.8808 84.8351L53.6767 94.5985L51.5704 122.834L51.568 122.867L51.58 122.897C52.2617 124.626 54.0884 124.38 56.2035 124.095C58.3149 123.81 66.0958 126.414 68.4816 126.414C73.144 126.414 78.4529 125.072 78.786 124.987Z" fill="#E4E4E4"/>
<path d="M57.976 81.4415L54.9173 80.1104L50.8873 85.0533L47.6208 100.893L58.8096 99.1969L57.976 81.4415Z" fill="#E4E4E4"/>
<path d="M105.023 110.65L91.0402 97.867L86.1805 92.5667L80.8234 97.0341L87.1126 104.761L102.784 114.401C102.926 115.014 103.247 115.569 103.707 115.997C104.167 116.425 104.744 116.706 105.365 116.803C105.986 116.9 106.621 116.809 107.19 116.543C107.759 116.276 108.234 115.845 108.557 115.305C108.879 114.766 109.032 114.142 108.997 113.515C108.962 112.887 108.741 112.285 108.361 111.784C107.981 111.284 107.46 110.908 106.865 110.706C106.271 110.504 105.629 110.484 105.023 110.65Z" fill="#9F616A"/>
<path d="M91.3446 98.0061L87.4718 92.9748C87.4397 92.9026 84.2266 85.7195 81.4415 82.5985C78.5845 79.3969 76.3353 81.0342 76.3128 81.0518L76.2568 81.094L76.1014 92.917L86.8249 105.736L91.3446 98.0061Z" fill="#E4E4E4"/>
<path d="M61.3799 66.002C60.8024 62.4423 63.2189 59.0883 66.7771 58.5107C70.3354 57.933 73.688 60.3504 74.2654 63.9101C74.8428 67.4698 72.4264 70.8238 68.8681 71.4014C65.3099 71.9791 61.9573 69.5617 61.3799 66.002Z" fill="#9F616A"/>
<path d="M73.7898 63.9868C73.7898 63.9868 73.8421 61.6913 74.1322 60.6756C74.4223 59.6599 75.0025 58.7892 74.7124 58.7892C74.4223 58.7892 74.2772 58.0637 74.2772 58.0637C74.2772 58.0637 73.9872 57.9186 73.8421 58.0637C73.6971 58.2088 73.552 57.048 73.552 57.048C73.552 57.048 73.407 56.6127 73.2619 56.9029C73.1169 57.1931 73.1169 57.048 72.9718 56.6127C72.8268 56.1773 72.1015 55.8871 72.1015 55.8871C72.1015 55.8871 69.3457 56.0322 68.9105 55.4518C68.4754 54.8714 63.5438 55.3067 62.5285 56.0322C61.5132 56.7577 57.0168 59.3696 57.742 61.5462C58.4673 63.7228 60.5549 68.7343 61.0781 69.2367C61.9054 70.0313 62.4781 70.3177 66.3925 71.0969C67.1586 71.2494 71.0688 68.7477 71.0688 68.3124C71.0688 67.8771 70.5974 66.4966 71.3552 66.3071C72.5006 66.0206 72.6294 67.4694 72.9195 67.034C73.2096 66.5987 73.7898 63.9868 73.7898 63.9868Z" fill="#2F2E41"/>
<path d="M70.0754 186.744L83.4785 186.744V186.574C83.4784 185.19 82.9287 183.863 81.9504 182.884C80.9721 181.905 79.6452 181.355 78.2617 181.355H78.2613L75.8131 179.497L71.2452 181.355L70.0752 181.356L70.0754 186.744Z" fill="#2F2E41"/>
<path d="M0.403625 187H219.872C219.979 187 220.081 186.958 220.157 186.882C220.233 186.806 220.275 186.703 220.275 186.596C220.275 186.489 220.233 186.386 220.157 186.311C220.081 186.235 219.979 186.192 219.872 186.192H0.403625C0.296555 186.192 0.193878 186.235 0.118164 186.311C0.04245 186.386 -7.62939e-05 186.489 -7.62939e-05 186.596C-7.62939e-05 186.703 0.04245 186.806 0.118164 186.882C0.193878 186.958 0.296555 187 0.403625 187Z" fill="#CACACA"/>
</g>
<defs>
<clipPath id="clip0_18_366">
<rect width="221" height="187" fill="white" transform="matrix(-1 0 0 1 221 0)"/>
</clipPath>
</defs>
</svg>
