<svg width="217" height="156" viewBox="0 0 217 156" fill="none" xmlns="http://www.w3.org/2000/svg">
<g clip-path="url(#clip0_18_162)">
<path d="M211.254 155.656C211.254 155.847 211.101 156 210.911 156H0.343613C0.153046 156 1.52588e-05 155.847 1.52588e-05 155.656C1.52588e-05 155.465 0.153046 155.312 0.343613 155.312H210.911C211.101 155.312 211.254 155.465 211.254 155.656Z" fill="#1A237E"/>
<path d="M143.827 27.5173H211.361C213.937 27.5173 216.033 25.4177 216.033 22.8381C216.033 20.2584 213.937 18.1588 211.361 18.1588H143.827C141.252 18.1588 139.156 20.2584 139.156 22.8381C139.156 25.4177 141.252 27.5173 143.827 27.5173ZM211.361 18.7372C213.619 18.7372 215.455 20.5765 215.455 22.8381C215.455 25.0996 213.619 26.9389 211.361 26.9389H143.827C141.57 26.9389 139.733 25.0996 139.733 22.8381C139.733 20.5765 141.57 18.7372 143.827 18.7372H211.361Z" fill="#1A237E"/>
<path d="M143.827 82.2773H211.361C213.859 82.2773 215.888 80.2442 215.888 77.7427C215.888 75.2411 213.859 73.208 211.361 73.208H143.827C141.33 73.208 139.3 75.2411 139.3 77.7427C139.3 80.2442 141.33 82.2773 143.827 82.2773Z" fill="#1A237E"/>
<path d="M165.958 9.0693H212.473C214.97 9.0693 217 7.03622 217 4.53465C217 2.03307 214.97 0 212.473 0H165.958C163.461 0 161.431 2.03307 161.431 4.53465C161.431 7.03622 163.461 9.0693 165.958 9.0693Z" fill="#1A237E"/>
<path d="M143.827 45.8178H211.361C213.937 45.8178 216.033 43.7183 216.033 41.1386C216.033 38.5589 213.937 36.4594 211.361 36.4594H143.827C141.252 36.4594 139.156 38.5589 139.156 41.1386C139.156 43.7183 141.252 45.8178 143.827 45.8178ZM211.361 37.0378C213.619 37.0378 215.455 38.8771 215.455 41.1386C215.455 43.4001 213.619 45.2394 211.361 45.2394H143.827C141.57 45.2394 139.733 43.4001 139.733 41.1386C139.733 38.8771 141.57 37.0378 143.827 37.0378H211.361Z" fill="#1A237E"/>
<path d="M143.827 64.1213H211.361C213.937 64.1213 216.033 62.0217 216.033 59.4421C216.033 56.8624 213.937 54.7628 211.361 54.7628H143.827C141.252 54.7628 139.156 56.8624 139.156 59.4421C139.156 62.0217 141.252 64.1213 143.827 64.1213ZM211.361 55.3412C213.619 55.3412 215.455 57.1805 215.455 59.4421C215.455 61.7036 213.619 63.5429 211.361 63.5429H143.827C141.57 63.5429 139.733 61.7036 139.733 59.4421C139.733 57.1805 141.57 55.3412 143.827 55.3412H211.361Z" fill="#1A237E"/>
<path d="M213.683 14.7983H195.983C195.562 14.7983 195.218 15.1396 195.218 15.5647C195.218 15.987 195.562 16.3311 195.983 16.3311H213.683C214.104 16.3311 214.448 15.9898 214.448 15.5647C214.448 15.1425 214.104 14.7983 213.683 14.7983Z" fill="#1A237E"/>
<path d="M213.683 33.5327H195.983C195.562 33.5327 195.218 33.874 195.218 34.2962C195.218 34.7184 195.562 35.0626 195.983 35.0626H213.683C214.104 35.0626 214.448 34.7213 214.448 34.2991C214.448 33.8769 214.104 33.5327 213.683 33.5327Z" fill="#1A237E"/>
<path d="M213.683 52.2699H195.983C195.562 52.2699 195.218 52.6112 195.218 53.0363C195.218 53.4585 195.562 53.7998 195.983 53.7998H213.683C214.104 53.7998 214.448 53.4585 214.448 53.0334C214.448 52.6112 214.104 52.2699 213.683 52.2699Z" fill="#1A237E"/>
<path d="M87.9151 38.2495L94.3711 40.3781V31.0687H88.5128L87.9151 38.2495Z" fill="#9F616A"/>
<path d="M93.5713 33.6455C90.0185 33.6455 87.1384 30.7607 87.1384 27.2022C87.1384 23.6436 90.0185 20.7588 93.5713 20.7588C97.1241 20.7588 100.004 23.6436 100.004 27.2022C100.004 30.7607 97.1241 33.6455 93.5713 33.6455Z" fill="#9F616A"/>
<path d="M91.8043 26.563C92.8812 26.5312 93.5886 25.4409 94.0073 24.4461C94.4259 23.4512 94.8561 22.3089 95.8551 21.8982C96.6722 21.5628 98.113 23.833 98.7568 23.2286C99.4296 22.5981 98.7742 19.362 98.061 18.7807C97.3478 18.1994 96.3719 18.0866 95.4538 18.0432C93.2132 17.9391 90.9583 18.1213 88.7611 18.5811C87.4011 18.8645 86.0037 19.2926 85.022 20.2758C83.7805 21.5252 83.4629 23.4079 83.3734 25.1691C83.281 26.9708 83.3849 28.8564 84.2598 30.4325C85.1346 32.0087 86.9652 33.1712 88.7206 32.7693C88.8968 31.8149 88.7177 30.8345 88.6484 29.8628C88.582 28.894 88.6513 27.8471 89.2432 27.0749C89.8322 26.3028 91.0969 25.9962 91.784 26.6816" fill="#2F2E43"/>
<path d="M83.8902 28.7956C83.2463 28.3242 82.4754 27.928 81.6843 28.0263C80.8297 28.1304 80.105 28.8361 79.8855 29.6719C79.6661 30.5077 79.9115 31.4273 80.4428 32.1098C80.9712 32.7923 81.7594 33.2435 82.5909 33.4691C83.0731 33.5992 83.6015 33.6542 84.0606 33.4575C84.7362 33.1654 85.1029 32.3007 84.8372 31.6124" fill="#2F2E43"/>
<path d="M108.507 89.4206C108.937 91.5375 108.149 93.4722 106.752 93.7412C105.354 94.0102 103.873 92.5092 103.446 90.3923C103.264 89.5478 103.293 88.6744 103.53 87.8415L98.2083 54.6559L104.863 53.4008L107.433 87.0925C107.979 87.775 108.346 88.5732 108.507 89.4235V89.4206Z" fill="#9F616A"/>
<path d="M94.4403 36.1066H98.9821C102.193 36.5953 103.065 38.3103 103.795 41.4799C104.91 46.3153 106.333 52.7529 106.05 52.8483C105.597 52.9987 97.8647 56.6426 93.9235 55.8097L94.4403 36.1066Z" fill="#1A237E"/>
<path d="M90.0488 141.812H96.0948V150.404H90.0488V141.812Z" fill="#9F616A"/>
<path d="M101.982 155.604C102.617 155.604 103.183 155.589 103.61 155.549C105.216 155.401 106.749 154.213 107.52 153.519C107.866 153.206 107.976 152.709 107.797 152.281C107.667 151.974 107.41 151.743 107.09 151.653L102.845 150.439L95.9735 145.794L95.8955 145.933C95.8667 145.985 95.191 147.203 94.9658 148.024C94.8792 148.336 94.9023 148.597 95.0322 148.799C95.1218 148.938 95.2488 149.019 95.3498 149.065C95.2257 149.195 94.8359 149.461 93.6348 149.652C91.8822 149.93 91.5126 148.111 91.4982 148.035L91.4867 147.975L91.4347 147.94C90.6003 147.402 90.0863 147.156 89.9102 147.208C89.8005 147.24 89.6157 147.298 89.1162 152.252C89.0671 152.408 88.7177 153.548 88.9545 154.638C89.2115 155.824 94.3855 155.416 95.422 155.323C95.4509 155.326 99.3256 155.604 101.979 155.604H101.982Z" fill="#2F2E43"/>
<path d="M72.833 135.061L77.963 138.266L73.4237 145.556L68.2936 142.352L72.833 135.061Z" fill="#9F616A"/>
<path d="M79.6459 154.427C80.3562 154.427 81.0087 154.34 81.4735 154.259C81.9297 154.178 82.2878 153.814 82.3628 153.357C82.4148 153.027 82.3195 152.695 82.0943 152.449L79.1348 149.169L75.7567 141.586L75.6181 141.662C75.5661 141.69 74.3506 142.364 73.7241 142.943C73.4844 143.162 73.366 143.397 73.3718 143.637C73.3747 143.805 73.4382 143.938 73.5017 144.033C73.3285 144.079 72.8579 144.097 71.7376 143.622C70.1034 142.931 70.7501 141.19 70.779 141.118L70.8021 141.06L70.7761 141.005C70.3517 140.106 70.0485 139.626 69.8695 139.576C69.7569 139.545 69.5721 139.495 66.5318 143.437C66.4077 143.541 65.5097 144.325 65.1344 145.375C64.7273 146.517 69.3325 148.915 70.2593 149.383C70.2882 149.406 75.1071 152.914 77.0877 153.912C77.8731 154.308 78.8028 154.43 79.6488 154.43L79.6459 154.427Z" fill="#2F2E43"/>
<path d="M85.5966 69.9603H102.525L104.061 85.7333L97.3392 144.013H88.6975L92.1536 110.353L78.1358 140.742L70.4556 135.357L81.4013 106.987C81.4013 106.987 77.492 82.2716 80.564 76.1145C83.6361 69.9603 85.5966 69.9603 85.5966 69.9603Z" fill="#2F2E43"/>
<path d="M77.1744 70.9204H104.061L95.9937 36.1066H84.28L77.1744 70.9204Z" fill="#1A237E"/>
<path d="M74.7548 89.4206C74.3246 91.5375 75.1128 93.4722 76.5103 93.7412C77.9077 94.0102 79.3889 92.5092 79.8162 90.3923C79.9981 89.5478 79.9692 88.6744 79.7325 87.8415L85.0538 54.6559L78.3986 53.4008L75.8289 87.0925C75.2832 87.775 74.9165 88.5732 74.7548 89.4235V89.4206Z" fill="#9F616A"/>
<path d="M88.8217 36.1066H84.28C81.0693 36.5953 80.1973 38.3103 79.4669 41.4799C78.3524 46.3153 76.9289 52.7529 77.2119 52.8483C77.6652 52.9987 85.3974 56.6426 89.3385 55.8097L88.8217 36.1066Z" fill="#1A237E"/>
</g>
<defs>
<clipPath id="clip0_18_162">
<rect width="217" height="156" fill="white" transform="matrix(-1 0 0 1 217 0)"/>
</clipPath>
</defs>
</svg>
